<?xml version="1.0" standalone="no"?><svg xmlns:xlink="http://www.w3.org/1999/xlink" xmlns="http://www.w3.org/2000/svg" viewBox="0 0 1000 599.9839642402558" preserveAspectRatio="xMaxYMax slice"><g transform="scale(2.004469968028704)"><rect x="0" y="0" width="498.8883333333333" height="299.33299999999997" fill="#ffffff"/><rect x="0" y="0" width="49.88883333333333" height="49.88883333333333" fill="#ffffff"/><rect x="0" y="0" width="24.94" height="24.94" fill="#FF3565"/><polygon points="24.94,0 24.94,24.94 0,24.94" fill="#FF3565"/><rect x="24.94" y="0" width="24.94" height="24.94" fill="#20dfdf"/><polygon points="24.94,0 49.88,0 24.94,24.94" fill="#183FE1"/><rect x="0" y="24.94" width="24.94" height="24.94" fill="#183FE1"/><polygon points="0,24.94 24.94,24.94 24.94,49.88" fill="#183FE1"/><rect x="24.94" y="24.94" width="24.94" height="24.94" fill="#FF3565"/><polygon points="24.94,24.94 49.88,49.88 24.94,49.88" fill="#20dfdf"/><rect x="49.89" y="0" width="49.89" height="49.89" fill="#FF3565"/><rect x="49.89" y="0" width="49.89" height="49.89" fill="#20dfdf"/><rect x="99.78" y="0" width="49.89" height="49.89" fill="#20dfdf"/><rect x="99.78" y="0" width="49.89" height="49.89" fill="#20dfdf"/><rect x="149.67" y="0" width="49.89" height="49.89" fill="#20dfdf"/><rect x="149.67" y="0" width="49.89" height="49.89" fill="#20dfdf"/><rect x="199.56" y="0" width="49.89" height="49.89" fill="#183FE1"/><path d="M 199.56 49.89 A 49.89 49.89 0 0 0 249.45 0 L 199.56 0" fill="#183FE1"/><rect x="249.44416666666666" y="0" width="49.88883333333333" height="49.88883333333333" fill="#ffffff"/><rect x="249.44" y="0" width="24.94" height="24.94" fill="#183FE1"/><circle cx="261.91" cy="12.47" r="12.47" fill="#20dfdf"/><rect x="274.39" y="0" width="24.94" height="24.94" fill="#20dfdf"/><rect x="274.39" y="0" width="24.94" height="24.94" fill="#20dfdf"/><rect x="249.44" y="24.94" width="24.94" height="24.94" fill="#20dfdf"/><circle cx="261.91" cy="37.410000000000004" r="12.47" fill="#183FE1"/><rect x="274.39" y="24.94" width="24.94" height="24.94" fill="#FF3565"/><rect x="274.39" y="24.94" width="24.94" height="24.94" fill="#183FE1"/><rect x="299.33299999999997" y="0" width="49.88883333333333" height="49.88883333333333" fill="#ffffff"/><rect x="299.33" y="0" width="24.94" height="24.94" fill="#20dfdf"/><circle cx="311.8" cy="12.47" r="12.47" fill="#20dfdf"/><rect x="324.28" y="0" width="24.94" height="24.94" fill="#20dfdf"/><rect x="324.28" y="0" width="24.94" height="24.94" fill="#183FE1"/><rect x="299.33" y="24.94" width="24.94" height="24.94" fill="#20dfdf"/><circle cx="311.8" cy="37.410000000000004" r="12.47" fill="#20dfdf"/><rect x="324.28" y="24.94" width="24.94" height="24.94" fill="#183FE1"/><rect x="324.28" y="24.94" width="24.94" height="24.94" fill="#20dfdf"/><rect x="349.22183333333334" y="0" width="49.88883333333333" height="49.88883333333333" fill="#ffffff"/><rect x="349.22" y="0" width="24.94" height="24.94" fill="#183FE1"/><path d="M 349.22 0 A 24.94 24.94 0 0 1 374.16 24.94 L 349.22 24.94" fill="#183FE1"/><rect x="374.17" y="0" width="24.94" height="24.94" fill="#FF3565"/><path d="M 374.17 24.94 A 24.94 24.94 0 0 1  399.11 0 L 399.11 24.94" fill="#20dfdf"/><rect x="349.22" y="24.94" width="24.94" height="24.94" fill="#20dfdf"/><path d="M 349.22 49.88 A 24.94 24.94 0 0 0 374.16 24.94 L 349.22 24.94" fill="#20dfdf"/><rect x="374.17" y="24.94" width="24.94" height="24.94" fill="#20dfdf"/><path d="M 374.17 24.94 A 24.94 24.94 0 0 0 399.11 49.88 L 399.11 24.94" fill="#FF3565"/><rect x="399.11" y="0" width="49.89" height="49.89" fill="#183FE1"/><path d="M 399.11 49.89 A 49.89 49.89 0 0 1  449 0 L 399.11 49.89 A 49.89 49.89 0 0 0 449 0" fill="#20dfdf"/><rect x="449" y="0" width="49.89" height="49.89" fill="#183FE1"/><rect x="449" y="0" width="49.89" height="49.89" fill="#183FE1"/><rect x="0" y="49.89" width="49.89" height="49.89" fill="#20dfdf"/><rect x="0" y="49.89" width="49.89" height="49.89" fill="#20dfdf"/><rect x="49.88883333333333" y="49.88883333333333" width="49.88883333333333" height="49.88883333333333" fill="#ffffff"/><rect x="49.89" y="49.89" width="24.94" height="24.94" fill="#20dfdf"/><polygon points="74.83,49.89 74.83,74.83 49.89,74.83" fill="#FF3565"/><rect x="74.83" y="49.89" width="24.94" height="24.94" fill="#20dfdf"/><polygon points="74.83,49.89 99.77,74.83 74.83,74.83" fill="#20dfdf"/><rect x="49.89" y="74.83" width="24.94" height="24.94" fill="#20dfdf"/><polygon points="49.89,74.83 74.83,74.83 74.83,99.77" fill="#20dfdf"/><rect x="74.83" y="74.83" width="24.94" height="24.94" fill="#FF3565"/><polygon points="74.83,74.83 99.77,74.83 74.83,99.77" fill="#20dfdf"/><rect x="99.77766666666666" y="49.88883333333333" width="49.88883333333333" height="49.88883333333333" fill="#ffffff"/><rect x="99.78" y="49.89" width="24.94" height="24.94" fill="#183FE1"/><circle cx="112.25" cy="62.36" r="12.47" fill="#183FE1"/><rect x="124.72" y="49.89" width="24.94" height="24.94" fill="#20dfdf"/><rect x="124.72" y="49.89" width="24.94" height="24.94" fill="#FF3565"/><rect x="99.78" y="74.83" width="24.94" height="24.94" fill="#20dfdf"/><circle cx="112.25" cy="87.3" r="12.47" fill="#FF3565"/><rect x="124.72" y="74.83" width="24.94" height="24.94" fill="#FF3565"/><rect x="124.72" y="74.83" width="24.94" height="24.94" fill="#FF3565"/><rect x="149.66649999999998" y="49.88883333333333" width="49.88883333333333" height="49.88883333333333" fill="#ffffff"/><rect x="149.67" y="49.89" width="24.94" height="24.94" fill="#183FE1"/><path d="M 149.67 49.89 A 24.94 24.94 0 0 1 174.60999999999999 74.83 L 149.67 74.83" fill="#FF3565"/><rect x="174.61" y="49.89" width="24.94" height="24.94" fill="#183FE1"/><path d="M 174.61 74.83 A 24.94 24.94 0 0 1  199.55 49.89 L 199.55 74.83" fill="#20dfdf"/><rect x="149.67" y="74.83" width="24.94" height="24.94" fill="#20dfdf"/><path d="M 149.67 99.77 A 24.94 24.94 0 0 0 174.60999999999999 74.83 L 149.67 74.83" fill="#20dfdf"/><rect x="174.61" y="74.83" width="24.94" height="24.94" fill="#183FE1"/><path d="M 174.61 74.83 A 24.94 24.94 0 0 0 199.55 99.77 L 199.55 74.83" fill="#20dfdf"/><rect x="199.55533333333332" y="49.88883333333333" width="49.88883333333333" height="49.88883333333333" fill="#ffffff"/><rect x="199.56" y="49.89" width="24.94" height="24.94" fill="#183FE1"/><path d="M 199.56 49.89 A 24.94 24.94 0 0 0 224.5 74.83 L 224.5 49.89" fill="#183FE1"/><rect x="224.5" y="49.89" width="24.94" height="24.94" fill="#FF3565"/><path d="M 224.5 74.83 A 24.94 24.94 0 0 0 249.44 49.89 L 224.5 49.89" fill="#FF3565"/><rect x="199.56" y="74.83" width="24.94" height="24.94" fill="#183FE1"/><path d="M 199.56 99.77 A 24.94 24.94 0 0 1  224.5 74.83 L 224.5 99.77" fill="#FF3565"/><rect x="224.5" y="74.83" width="24.94" height="24.94" fill="#183FE1"/><path d="M 224.5 74.83 A 24.94 24.94 0 0 1 249.44 99.77 L 224.5 99.77" fill="#20dfdf"/><rect x="249.44" y="49.89" width="49.89" height="49.89" fill="#20dfdf"/><rect x="249.44" y="49.89" width="49.89" height="49.89" fill="#FF3565"/><rect x="299.33" y="49.89" width="49.89" height="49.89" fill="#20dfdf"/><polygon points="299.33,49.89 349.21999999999997,49.89 349.21999999999997,99.78" fill="#FF3565"/><rect x="349.22183333333334" y="49.88883333333333" width="49.88883333333333" height="49.88883333333333" fill="#ffffff"/><rect x="349.22" y="49.89" width="24.94" height="24.94" fill="#183FE1"/><path d="M 349.22 74.83 A 24.94 24.94 0 0 0 374.16 49.89 L 349.22 49.89" fill="#20dfdf"/><rect x="374.17" y="49.89" width="24.94" height="24.94" fill="#20dfdf"/><path d="M 374.17 49.89 A 24.94 24.94 0 0 0 399.11 74.83 L 399.11 49.89" fill="#FF3565"/><rect x="349.22" y="74.83" width="24.94" height="24.94" fill="#FF3565"/><path d="M 349.22 74.83 A 24.94 24.94 0 0 1 374.16 99.77 L 349.22 99.77" fill="#183FE1"/><rect x="374.17" y="74.83" width="24.94" height="24.94" fill="#FF3565"/><path d="M 374.17 99.77 A 24.94 24.94 0 0 1  399.11 74.83 L 399.11 99.77" fill="#FF3565"/><rect x="399.11" y="49.89" width="49.89" height="49.89" fill="#FF3565"/><rect x="399.11" y="49.89" width="49.89" height="49.89" fill="#FF3565"/><rect x="448.99949999999995" y="49.88883333333333" width="49.88883333333333" height="49.88883333333333" fill="#ffffff"/><rect x="449" y="49.89" width="24.94" height="24.94" fill="#20dfdf"/><circle cx="461.47" cy="62.36" r="12.47" fill="#183FE1"/><rect x="473.94" y="49.89" width="24.94" height="24.94" fill="#FF3565"/><rect x="473.94" y="49.89" width="24.94" height="24.94" fill="#183FE1"/><rect x="449" y="74.83" width="24.94" height="24.94" fill="#FF3565"/><circle cx="461.47" cy="87.3" r="12.47" fill="#20dfdf"/><rect x="473.94" y="74.83" width="24.94" height="24.94" fill="#183FE1"/><rect x="473.94" y="74.83" width="24.94" height="24.94" fill="#20dfdf"/><rect x="0" y="99.78" width="49.89" height="49.89" fill="#20dfdf"/><path d="M 0 149.67000000000002 A 49.89 49.89 0 0 1  49.89 99.78 L 49.89 149.67000000000002" fill="#183FE1"/><rect x="49.89" y="99.78" width="49.89" height="49.89" fill="#FF3565"/><polygon points="49.89,99.78 99.78,149.67000000000002 49.89,149.67000000000002" fill="#183FE1"/><rect x="99.77766666666666" y="99.77766666666666" width="49.88883333333333" height="49.88883333333333" fill="#ffffff"/><rect x="99.78" y="99.78" width="24.94" height="24.94" fill="#183FE1"/><path d="M 99.78 99.78 A 24.94 24.94 0 0 0 124.72 124.72 L 124.72 99.78" fill="#20dfdf"/><rect x="124.72" y="99.78" width="24.94" height="24.94" fill="#183FE1"/><path d="M 124.72 124.72 A 24.94 24.94 0 0 0 149.66 99.78 L 124.72 99.78" fill="#20dfdf"/><rect x="99.78" y="124.72" width="24.94" height="24.94" fill="#FF3565"/><path d="M 99.78 149.66 A 24.94 24.94 0 0 1  124.72 124.72 L 124.72 149.66" fill="#FF3565"/><rect x="124.72" y="124.72" width="24.94" height="24.94" fill="#183FE1"/><path d="M 124.72 124.72 A 24.94 24.94 0 0 1 149.66 149.66 L 124.72 149.66" fill="#20dfdf"/><rect x="149.66649999999998" y="99.77766666666666" width="49.88883333333333" height="49.88883333333333" fill="#ffffff"/><rect x="149.67" y="99.78" width="24.94" height="24.94" fill="#FF3565"/><polygon points="174.60999999999999,99.78 174.60999999999999,124.72 149.67,124.72" fill="#20dfdf"/><rect x="174.61" y="99.78" width="24.94" height="24.94" fill="#183FE1"/><polygon points="174.61,99.78 199.55,124.72 174.61,124.72" fill="#FF3565"/><rect x="149.67" y="124.72" width="24.94" height="24.94" fill="#183FE1"/><polygon points="149.67,124.72 174.60999999999999,124.72 174.60999999999999,149.66" fill="#20dfdf"/><rect x="174.61" y="124.72" width="24.94" height="24.94" fill="#20dfdf"/><polygon points="174.61,124.72 199.55,124.72 174.61,149.66" fill="#FF3565"/><rect x="199.55533333333332" y="99.77766666666666" width="49.88883333333333" height="49.88883333333333" fill="#ffffff"/><rect x="199.56" y="99.78" width="24.94" height="24.94" fill="#20dfdf"/><path d="M 199.56 124.72 A 24.94 24.94 0 0 1  224.5 99.78 L 224.5 124.72" fill="#183FE1"/><rect x="224.5" y="99.78" width="24.94" height="24.94" fill="#20dfdf"/><path d="M 224.5 99.78 A 24.94 24.94 0 0 1 249.44 124.72 L 224.5 124.72" fill="#20dfdf"/><rect x="199.56" y="124.72" width="24.94" height="24.94" fill="#20dfdf"/><path d="M 199.56 124.72 A 24.94 24.94 0 0 0 224.5 149.66 L 224.5 124.72" fill="#FF3565"/><rect x="224.5" y="124.72" width="24.94" height="24.94" fill="#20dfdf"/><path d="M 224.5 149.66 A 24.94 24.94 0 0 0 249.44 124.72 L 224.5 124.72" fill="#FF3565"/><rect x="249.44416666666666" y="99.77766666666666" width="49.88883333333333" height="49.88883333333333" fill="#ffffff"/><rect x="249.44" y="99.78" width="24.94" height="24.94" fill="#FF3565"/><path d="M 249.44 99.78 A 24.94 24.94 0 0 1 274.38 124.72 L 249.44 124.72" fill="#20dfdf"/><rect x="274.39" y="99.78" width="24.94" height="24.94" fill="#20dfdf"/><path d="M 274.39 124.72 A 24.94 24.94 0 0 1  299.33 99.78 L 299.33 124.72" fill="#FF3565"/><rect x="249.44" y="124.72" width="24.94" height="24.94" fill="#183FE1"/><path d="M 249.44 149.66 A 24.94 24.94 0 0 0 274.38 124.72 L 249.44 124.72" fill="#20dfdf"/><rect x="274.39" y="124.72" width="24.94" height="24.94" fill="#183FE1"/><path d="M 274.39 124.72 A 24.94 24.94 0 0 0 299.33 149.66 L 299.33 124.72" fill="#FF3565"/><rect x="299.33299999999997" y="99.77766666666666" width="49.88883333333333" height="49.88883333333333" fill="#ffffff"/><rect x="299.33" y="99.78" width="24.94" height="24.94" fill="#FF3565"/><path d="M 299.33 99.78 A 24.94 24.94 0 0 0 324.27 124.72 L 324.27 99.78" fill="#FF3565"/><rect x="324.28" y="99.78" width="24.94" height="24.94" fill="#20dfdf"/><path d="M 324.28 124.72 A 24.94 24.94 0 0 0 349.21999999999997 99.78 L 324.28 99.78" fill="#FF3565"/><rect x="299.33" y="124.72" width="24.94" height="24.94" fill="#20dfdf"/><path d="M 299.33 149.66 A 24.94 24.94 0 0 1  324.27 124.72 L 324.27 149.66" fill="#20dfdf"/><rect x="324.28" y="124.72" width="24.94" height="24.94" fill="#183FE1"/><path d="M 324.28 124.72 A 24.94 24.94 0 0 1 349.21999999999997 149.66 L 324.28 149.66" fill="#183FE1"/><rect x="349.22" y="99.78" width="49.89" height="49.89" fill="#183FE1"/><path d="M 349.22 99.78 A 49.89 49.89 0 0 1  399.11 149.67000000000002 L 349.22 99.78 A 49.89 49.89 0 0 0 399.11 149.67000000000002" fill="#20dfdf"/><rect x="399.11" y="99.78" width="49.89" height="49.89" fill="#20dfdf"/><rect x="399.11" y="99.78" width="49.89" height="49.89" fill="#FF3565"/><rect x="449" y="99.78" width="49.89" height="49.89" fill="#183FE1"/><path d="M 449 149.67000000000002 A 49.89 49.89 0 0 1  498.89 99.78 L 449 149.67000000000002 A 49.89 49.89 0 0 0 498.89 99.78" fill="#183FE1"/><rect x="0" y="149.66649999999998" width="49.88883333333333" height="49.88883333333333" fill="#ffffff"/><rect x="0" y="149.67" width="24.94" height="24.94" fill="#20dfdf"/><path d="M 0 174.60999999999999 A 24.94 24.94 0 0 1  24.94 149.67 L 24.94 174.60999999999999" fill="#FF3565"/><rect x="24.94" y="149.67" width="24.94" height="24.94" fill="#FF3565"/><path d="M 24.94 149.67 A 24.94 24.94 0 0 1 49.88 174.60999999999999 L 24.94 174.60999999999999" fill="#20dfdf"/><rect x="0" y="174.61" width="24.94" height="24.94" fill="#183FE1"/><path d="M 0 174.61 A 24.94 24.94 0 0 0 24.94 199.55 L 24.94 174.61" fill="#FF3565"/><rect x="24.94" y="174.61" width="24.94" height="24.94" fill="#20dfdf"/><path d="M 24.94 199.55 A 24.94 24.94 0 0 0 49.88 174.61 L 24.94 174.61" fill="#FF3565"/><rect x="49.88883333333333" y="149.66649999999998" width="49.88883333333333" height="49.88883333333333" fill="#ffffff"/><rect x="49.89" y="149.67" width="24.94" height="24.94" fill="#183FE1"/><path d="M 49.89 174.60999999999999 A 24.94 24.94 0 0 1 74.83 149.67 L 74.83 155.905 A 18.705000000000002 18.705000000000002 0 0 0 56.125 174.60999999999999" fill="#20dfdf"/><rect x="74.83" y="149.67" width="24.94" height="24.94" fill="#20dfdf"/><path d="M 74.83 149.67 A 24.94 24.94 0 0 1 99.77 174.60999999999999 L 93.535 174.60999999999999 A 18.705000000000002 18.705000000000002 0 0 0 74.83 155.905" fill="#183FE1"/><rect x="49.89" y="174.61" width="24.94" height="24.94" fill="#FF3565"/><path d="M 49.89 174.61 A 24.94 24.94 0 0 0 74.83 199.55 L 74.83 193.31500000000003 A 18.705000000000002 18.705000000000002 0 0 1 56.125 174.61" fill="#20dfdf"/><rect x="74.83" y="174.61" width="24.94" height="24.94" fill="#20dfdf"/><path d="M 74.83 199.55 A 24.94 24.94 0 0 0 99.77 174.61 L 93.535 174.61 A 18.705000000000002 18.705000000000002 0 0 1 74.83 193.31500000000003" fill="#FF3565"/><rect x="99.78" y="149.67" width="49.89" height="49.89" fill="#20dfdf"/><path d="M 99.78 149.67 A 49.89 49.89 0 0 1  149.67000000000002 199.56 L 99.78 149.67 A 49.89 49.89 0 0 0 149.67000000000002 199.56" fill="#FF3565"/><rect x="149.67" y="149.67" width="49.89" height="49.89" fill="#FF3565"/><rect x="149.67" y="149.67" width="49.89" height="49.89" fill="#FF3565"/><rect x="199.56" y="149.67" width="49.89" height="49.89" fill="#183FE1"/><path d="M 199.56 199.56 A 49.89 49.89 0 0 0 249.45 149.67 L 199.56 149.67" fill="#183FE1"/><rect x="249.44" y="149.67" width="49.89" height="49.89" fill="#FF3565"/><rect x="249.44" y="149.67" width="49.89" height="49.89" fill="#20dfdf"/><rect x="299.33" y="149.67" width="49.89" height="49.89" fill="#20dfdf"/><polygon points="299.33,149.67 349.21999999999997,199.56 299.33,199.56" fill="#20dfdf"/><rect x="349.22" y="149.67" width="49.89" height="49.89" fill="#183FE1"/><path d="M 349.22 199.56 A 49.89 49.89 0 0 1  399.11 149.67 L 349.22 199.56 A 49.89 49.89 0 0 0 399.11 149.67" fill="#20dfdf"/><rect x="399.11066666666665" y="149.66649999999998" width="49.88883333333333" height="49.88883333333333" fill="#ffffff"/><rect x="399.11" y="149.67" width="24.94" height="24.94" fill="#20dfdf"/><polygon points="424.05,149.67 424.05,174.60999999999999 399.11,174.60999999999999" fill="#183FE1"/><rect x="424.06" y="149.67" width="24.94" height="24.94" fill="#183FE1"/><polygon points="424.06,149.67 449,174.60999999999999 424.06,174.60999999999999" fill="#FF3565"/><rect x="399.11" y="174.61" width="24.94" height="24.94" fill="#183FE1"/><polygon points="399.11,174.61 424.05,174.61 424.05,199.55" fill="#FF3565"/><rect x="424.06" y="174.61" width="24.94" height="24.94" fill="#FF3565"/><polygon points="424.06,174.61 449,174.61 424.06,199.55" fill="#183FE1"/><rect x="448.99949999999995" y="149.66649999999998" width="49.88883333333333" height="49.88883333333333" fill="#ffffff"/><rect x="449" y="149.67" width="24.94" height="24.94" fill="#20dfdf"/><path d="M 449 149.67 A 24.94 24.94 0 0 1 473.94 174.60999999999999 L 449 174.60999999999999" fill="#FF3565"/><rect x="473.94" y="149.67" width="24.94" height="24.94" fill="#FF3565"/><path d="M 473.94 174.60999999999999 A 24.94 24.94 0 0 1  498.88 149.67 L 498.88 174.60999999999999" fill="#183FE1"/><rect x="449" y="174.61" width="24.94" height="24.94" fill="#183FE1"/><path d="M 449 199.55 A 24.94 24.94 0 0 0 473.94 174.61 L 449 174.61" fill="#183FE1"/><rect x="473.94" y="174.61" width="24.94" height="24.94" fill="#20dfdf"/><path d="M 473.94 174.61 A 24.94 24.94 0 0 0 498.88 199.55 L 498.88 174.61" fill="#183FE1"/><rect x="0" y="199.56" width="49.89" height="49.89" fill="#183FE1"/><polygon points="0,199.56 49.89,199.56 49.89,249.45" fill="#20dfdf"/><rect x="49.89" y="199.56" width="49.89" height="49.89" fill="#20dfdf"/><polygon points="49.89,199.56 99.78,199.56 49.89,249.45" fill="#FF3565"/><rect x="99.77766666666666" y="199.55533333333332" width="49.88883333333333" height="49.88883333333333" fill="#ffffff"/><rect x="99.78" y="199.56" width="24.94" height="24.94" fill="#183FE1"/><path d="M 99.78 224.5 A 24.94 24.94 0 0 1 124.72 199.56 L 124.72 205.79500000000002 A 18.705000000000002 18.705000000000002 0 0 0 106.015 224.5" fill="#FF3565"/><rect x="124.72" y="199.56" width="24.94" height="24.94" fill="#20dfdf"/><path d="M 124.72 199.56 A 24.94 24.94 0 0 1 149.66 224.5 L 143.425 224.5 A 18.705000000000002 18.705000000000002 0 0 0 124.72 205.79500000000002" fill="#20dfdf"/><rect x="99.78" y="224.5" width="24.94" height="24.94" fill="#183FE1"/><path d="M 99.78 224.5 A 24.94 24.94 0 0 0 124.72 249.44 L 124.72 243.205 A 18.705000000000002 18.705000000000002 0 0 1 106.015 224.5" fill="#20dfdf"/><rect x="124.72" y="224.5" width="24.94" height="24.94" fill="#20dfdf"/><path d="M 124.72 249.44 A 24.94 24.94 0 0 0 149.66 224.5 L 143.425 224.5 A 18.705000000000002 18.705000000000002 0 0 1 124.72 243.205" fill="#20dfdf"/><rect x="149.66649999999998" y="199.55533333333332" width="49.88883333333333" height="49.88883333333333" fill="#ffffff"/><rect x="149.67" y="199.56" width="24.94" height="24.94" fill="#20dfdf"/><path d="M 149.67 224.5 A 24.94 24.94 0 0 0 174.60999999999999 199.56 L 149.67 199.56" fill="#20dfdf"/><rect x="174.61" y="199.56" width="24.94" height="24.94" fill="#20dfdf"/><path d="M 174.61 199.56 A 24.94 24.94 0 0 0 199.55 224.5 L 199.55 199.56" fill="#183FE1"/><rect x="149.67" y="224.5" width="24.94" height="24.94" fill="#183FE1"/><path d="M 149.67 224.5 A 24.94 24.94 0 0 1 174.60999999999999 249.44 L 149.67 249.44" fill="#20dfdf"/><rect x="174.61" y="224.5" width="24.94" height="24.94" fill="#FF3565"/><path d="M 174.61 249.44 A 24.94 24.94 0 0 1  199.55 224.5 L 199.55 249.44" fill="#20dfdf"/><rect x="199.55533333333332" y="199.55533333333332" width="49.88883333333333" height="49.88883333333333" fill="#ffffff"/><rect x="199.56" y="199.56" width="24.94" height="24.94" fill="#183FE1"/><path d="M 199.56 199.56 A 24.94 24.94 0 0 1 224.5 224.5 L 199.56 224.5" fill="#20dfdf"/><rect x="224.5" y="199.56" width="24.94" height="24.94" fill="#183FE1"/><path d="M 224.5 224.5 A 24.94 24.94 0 0 1  249.44 199.56 L 249.44 224.5" fill="#FF3565"/><rect x="199.56" y="224.5" width="24.94" height="24.94" fill="#FF3565"/><path d="M 199.56 249.44 A 24.94 24.94 0 0 0 224.5 224.5 L 199.56 224.5" fill="#20dfdf"/><rect x="224.5" y="224.5" width="24.94" height="24.94" fill="#20dfdf"/><path d="M 224.5 224.5 A 24.94 24.94 0 0 0 249.44 249.44 L 249.44 224.5" fill="#FF3565"/><rect x="249.44" y="199.56" width="49.89" height="49.89" fill="#20dfdf"/><path d="M 249.44 249.45 A 49.89 49.89 0 0 1  299.33 199.56 L 249.44 249.45 A 49.89 49.89 0 0 0 299.33 199.56" fill="#20dfdf"/><rect x="299.33" y="199.56" width="49.89" height="49.89" fill="#FF3565"/><path d="M 299.33 199.56 A 49.89 49.89 0 0 1  349.21999999999997 249.45 L 299.33 199.56 A 49.89 49.89 0 0 0 349.21999999999997 249.45" fill="#FF3565"/><rect x="349.22183333333334" y="199.55533333333332" width="49.88883333333333" height="49.88883333333333" fill="#ffffff"/><rect x="349.22" y="199.56" width="24.94" height="24.94" fill="#20dfdf"/><circle cx="361.69000000000005" cy="212.03" r="12.47" fill="#FF3565"/><rect x="374.17" y="199.56" width="24.94" height="24.94" fill="#20dfdf"/><rect x="374.17" y="199.56" width="24.94" height="24.94" fill="#FF3565"/><rect x="349.22" y="224.5" width="24.94" height="24.94" fill="#20dfdf"/><circle cx="361.69000000000005" cy="236.97" r="12.47" fill="#20dfdf"/><rect x="374.17" y="224.5" width="24.94" height="24.94" fill="#20dfdf"/><rect x="374.17" y="224.5" width="24.94" height="24.94" fill="#183FE1"/><rect x="399.11" y="199.56" width="49.89" height="49.89" fill="#20dfdf"/><path d="M 399.11 249.45 A 49.89 49.89 0 0 0 449 199.56 L 399.11 199.56" fill="#20dfdf"/><rect x="448.99949999999995" y="199.55533333333332" width="49.88883333333333" height="49.88883333333333" fill="#ffffff"/><rect x="449" y="199.56" width="24.94" height="24.94" fill="#20dfdf"/><circle cx="461.47" cy="212.03" r="12.47" fill="#183FE1"/><rect x="473.94" y="199.56" width="24.94" height="24.94" fill="#183FE1"/><rect x="473.94" y="199.56" width="24.94" height="24.94" fill="#20dfdf"/><rect x="449" y="224.5" width="24.94" height="24.94" fill="#20dfdf"/><circle cx="461.47" cy="236.97" r="12.47" fill="#183FE1"/><rect x="473.94" y="224.5" width="24.94" height="24.94" fill="#183FE1"/><rect x="473.94" y="224.5" width="24.94" height="24.94" fill="#FF3565"/><rect x="0" y="249.44" width="49.89" height="49.89" fill="#20dfdf"/><path d="M 0 299.33 A 49.89 49.89 0 0 1  49.89 249.44 L 49.89 299.33" fill="#20dfdf"/><rect x="49.89" y="249.44" width="49.89" height="49.89" fill="#20dfdf"/><rect x="49.89" y="249.44" width="49.89" height="49.89" fill="#FF3565"/><rect x="99.78" y="249.44" width="49.89" height="49.89" fill="#20dfdf"/><path d="M 99.78 249.44 A 49.89 49.89 0 0 0 149.67000000000002 299.33 L 149.67000000000002 249.44" fill="#20dfdf"/><rect x="149.66649999999998" y="249.44416666666666" width="49.88883333333333" height="49.88883333333333" fill="#ffffff"/><rect x="149.67" y="249.44" width="24.94" height="24.94" fill="#20dfdf"/><polygon points="174.60999999999999,249.44 174.60999999999999,274.38 149.67,274.38" fill="#183FE1"/><rect x="174.61" y="249.44" width="24.94" height="24.94" fill="#FF3565"/><polygon points="174.61,249.44 199.55,274.38 174.61,274.38" fill="#20dfdf"/><rect x="149.67" y="274.39" width="24.94" height="24.94" fill="#183FE1"/><polygon points="149.67,274.39 174.60999999999999,274.39 174.60999999999999,299.33" fill="#20dfdf"/><rect x="174.61" y="274.39" width="24.94" height="24.94" fill="#20dfdf"/><polygon points="174.61,274.39 199.55,274.39 174.61,299.33" fill="#FF3565"/><rect x="199.55533333333332" y="249.44416666666666" width="49.88883333333333" height="49.88883333333333" fill="#ffffff"/><rect x="199.56" y="249.44" width="24.94" height="24.94" fill="#20dfdf"/><path d="M 199.56 274.38 A 24.94 24.94 0 0 0 224.5 249.44 L 199.56 249.44" fill="#FF3565"/><rect x="224.5" y="249.44" width="24.94" height="24.94" fill="#20dfdf"/><path d="M 224.5 249.44 A 24.94 24.94 0 0 0 249.44 274.38 L 249.44 249.44" fill="#183FE1"/><rect x="199.56" y="274.39" width="24.94" height="24.94" fill="#20dfdf"/><path d="M 199.56 274.39 A 24.94 24.94 0 0 1 224.5 299.33 L 199.56 299.33" fill="#20dfdf"/><rect x="224.5" y="274.39" width="24.94" height="24.94" fill="#183FE1"/><path d="M 224.5 299.33 A 24.94 24.94 0 0 1  249.44 274.39 L 249.44 299.33" fill="#20dfdf"/><rect x="249.44416666666666" y="249.44416666666666" width="49.88883333333333" height="49.88883333333333" fill="#ffffff"/><rect x="249.44" y="249.44" width="24.94" height="24.94" fill="#20dfdf"/><path d="M 249.44 249.44 A 24.94 24.94 0 0 1 274.38 274.38 L 249.44 274.38" fill="#FF3565"/><rect x="274.39" y="249.44" width="24.94" height="24.94" fill="#20dfdf"/><path d="M 274.39 274.38 A 24.94 24.94 0 0 1  299.33 249.44 L 299.33 274.38" fill="#FF3565"/><rect x="249.44" y="274.39" width="24.94" height="24.94" fill="#183FE1"/><path d="M 249.44 299.33 A 24.94 24.94 0 0 0 274.38 274.39 L 249.44 274.39" fill="#FF3565"/><rect x="274.39" y="274.39" width="24.94" height="24.94" fill="#183FE1"/><path d="M 274.39 274.39 A 24.94 24.94 0 0 0 299.33 299.33 L 299.33 274.39" fill="#20dfdf"/><rect x="299.33299999999997" y="249.44416666666666" width="49.88883333333333" height="49.88883333333333" fill="#ffffff"/><rect x="299.33" y="249.44" width="24.94" height="24.94" fill="#FF3565"/><polygon points="324.27,249.44 324.27,274.38 299.33,274.38" fill="#183FE1"/><rect x="324.28" y="249.44" width="24.94" height="24.94" fill="#183FE1"/><polygon points="324.28,249.44 349.21999999999997,249.44 324.28,274.38" fill="#20dfdf"/><rect x="299.33" y="274.39" width="24.94" height="24.94" fill="#183FE1"/><polygon points="299.33,274.39 324.27,274.39 324.27,299.33" fill="#FF3565"/><rect x="324.28" y="274.39" width="24.94" height="24.94" fill="#20dfdf"/><polygon points="324.28,274.39 349.21999999999997,299.33 324.28,299.33" fill="#20dfdf"/><rect x="349.22" y="249.44" width="49.89" height="49.89" fill="#20dfdf"/><path d="M 349.22 299.33 A 49.89 49.89 0 0 1  399.11 249.44 L 349.22 299.33 A 49.89 49.89 0 0 0 399.11 249.44" fill="#20dfdf"/><rect x="399.11" y="249.44" width="49.89" height="49.89" fill="#20dfdf"/><polygon points="449,249.44 449,299.33 399.11,299.33" fill="#FF3565"/><rect x="449" y="249.44" width="49.89" height="49.89" fill="#20dfdf"/><rect x="449" y="249.44" width="49.89" height="49.89" fill="#183FE1"/></g></svg>