<?xml version="1.0" standalone="no"?><svg xmlns:xlink="http://www.w3.org/1999/xlink" xmlns="http://www.w3.org/2000/svg" viewBox="0 0 1000 499.9916479580928" preserveAspectRatio="xMaxYMax slice"><g transform="scale(1.6704083814410948)"><rect x="0" y="0" width="598.6659999999999" height="299.33299999999997" fill="#d29da2"/><rect x="0" y="0" width="49.89" height="49.89" fill="#d4eb75"/><path d="M 0 49.89 A 49.89 49.89 0 0 0 49.89 0 L 0 0" fill="#eed881"/><rect x="49.89" y="0" width="49.89" height="49.89" fill="#72ef62"/><path d="M 49.89 49.89 A 49.89 49.89 0 0 0 99.78 0 L 49.89 0" fill="#7579eb"/><rect x="99.77766666666666" y="0" width="49.88883333333333" height="49.88883333333333" fill="#d29da2"/><rect x="99.78" y="0" width="24.94" height="24.94" fill="#7579eb"/><path d="M 99.78 24.94 A 24.94 24.94 0 0 1  124.72 0 L 124.72 24.94" fill="#d4eb75"/><rect x="124.72" y="0" width="24.94" height="24.94" fill="#7579eb"/><path d="M 124.72 24.94 A 24.94 24.94 0 0 0 149.66 0 L 124.72 0" fill="#7579eb"/><rect x="99.78" y="24.94" width="24.94" height="24.94" fill="#FF3565"/><path d="M 99.78 49.88 A 24.94 24.94 0 0 1  124.72 24.94 L 124.72 49.88" fill="#d4eb75"/><rect x="124.72" y="24.94" width="24.94" height="24.94" fill="#7579eb"/><path d="M 124.72 49.88 A 24.94 24.94 0 0 1  149.66 24.94 L 149.66 49.88" fill="#7579eb"/><rect x="149.67" y="0" width="49.89" height="49.89" fill="#eed881"/><path d="M 149.67 49.89 A 49.89 49.89 0 0 1  199.56 0 L 149.67 49.89 A 49.89 49.89 0 0 0 199.56 0" fill="#72ef62"/><rect x="199.56" y="0" width="49.89" height="49.89" fill="#72ef62"/><path d="M 199.56 49.89 A 49.89 49.89 0 0 0 249.45 0 L 199.56 0" fill="#eed881"/><rect x="249.44416666666666" y="0" width="49.88883333333333" height="49.88883333333333" fill="#d29da2"/><rect x="249.44" y="0" width="24.94" height="24.94" fill="#d4eb75"/><path d="M 249.44 24.94 A 24.94 24.94 0 0 1  274.38 0 L 249.44 24.94 A 24.94 24.94 0 0 0 274.38 0" fill="#d4eb75"/><rect x="274.39" y="0" width="24.94" height="24.94" fill="#d4eb75"/><path d="M 274.39 24.94 A 24.94 24.94 0 0 0 299.33 0 L 274.39 0" fill="#7579eb"/><rect x="249.44" y="24.94" width="24.94" height="24.94" fill="#7579eb"/><path d="M 249.44 49.88 A 24.94 24.94 0 0 1  274.38 24.94 L 249.44 49.88 A 24.94 24.94 0 0 0 274.38 24.94" fill="#7579eb"/><rect x="274.39" y="24.94" width="24.94" height="24.94" fill="#d4eb75"/><path d="M 274.39 49.88 A 24.94 24.94 0 0 1  299.33 24.94 L 299.33 49.88" fill="#d4eb75"/><rect x="299.33299999999997" y="0" width="49.88883333333333" height="49.88883333333333" fill="#d29da2"/><rect x="299.33" y="0" width="24.94" height="24.94" fill="#eed881"/><path d="M 299.33 24.94 A 24.94 24.94 0 0 1  324.27 0 L 299.33 24.94 A 24.94 24.94 0 0 0 324.27 0" fill="#d4eb75"/><rect x="324.28" y="0" width="24.94" height="24.94" fill="#7579eb"/><path d="M 324.28 0 A 24.94 24.94 0 0 0 349.21999999999997 24.94 L 349.21999999999997 0" fill="#72ef62"/><rect x="299.33" y="24.94" width="24.94" height="24.94" fill="#eed881"/><path d="M 299.33 49.88 A 24.94 24.94 0 0 1  324.27 24.94 L 299.33 49.88 A 24.94 24.94 0 0 0 324.27 24.94" fill="#eed881"/><rect x="324.28" y="24.94" width="24.94" height="24.94" fill="#FF3565"/><path d="M 324.28 24.94 A 24.94 24.94 0 0 0 349.21999999999997 49.88 L 349.21999999999997 24.94" fill="#7579eb"/><rect x="349.22183333333334" y="0" width="49.88883333333333" height="49.88883333333333" fill="#d29da2"/><rect x="349.22" y="0" width="24.94" height="24.94" fill="#d4eb75"/><path d="M 349.22 24.94 A 24.94 24.94 0 0 0 374.16 0 L 349.22 0" fill="#72ef62"/><rect x="374.17" y="0" width="24.94" height="24.94" fill="#72ef62"/><path d="M 374.17 0 A 24.94 24.94 0 0 0 399.11 24.94 L 399.11 0" fill="#7579eb"/><rect x="349.22" y="24.94" width="24.94" height="24.94" fill="#eed881"/><path d="M 349.22 49.88 A 24.94 24.94 0 0 1  374.16 24.94 L 374.16 49.88" fill="#7579eb"/><rect x="374.17" y="24.94" width="24.94" height="24.94" fill="#72ef62"/><path d="M 374.17 24.94 A 24.94 24.94 0 0 1 399.11 49.88 L 374.17 49.88" fill="#7579eb"/><rect x="399.11" y="0" width="49.89" height="49.89" fill="#d4eb75"/><path d="M 399.11 0 A 49.89 49.89 0 0 1 449 49.89 L 399.11 49.89" fill="#7579eb"/><rect x="449" y="0" width="49.89" height="49.89" fill="#eed881"/><path d="M 449 0 A 49.89 49.89 0 0 0 498.89 49.89 L 498.89 0" fill="#7579eb"/><rect x="498.8883333333333" y="0" width="49.88883333333333" height="49.88883333333333" fill="#d29da2"/><rect x="498.89" y="0" width="24.94" height="24.94" fill="#7579eb"/><path d="M 498.89 24.94 A 24.94 24.94 0 0 1  523.83 0 L 498.89 24.94 A 24.94 24.94 0 0 0 523.83 0" fill="#d4eb75"/><rect x="523.83" y="0" width="24.94" height="24.94" fill="#d4eb75"/><path d="M 523.83 0 A 24.94 24.94 0 0 0 548.7700000000001 24.94 L 548.7700000000001 0" fill="#eed881"/><rect x="498.89" y="24.94" width="24.94" height="24.94" fill="#72ef62"/><path d="M 498.89 24.94 A 24.94 24.94 0 0 1 523.83 49.88 L 498.89 49.88" fill="#eed881"/><rect x="523.83" y="24.94" width="24.94" height="24.94" fill="#72ef62"/><path d="M 523.83 49.88 A 24.94 24.94 0 0 0 548.7700000000001 24.94 L 523.83 24.94" fill="#72ef62"/><rect x="548.78" y="0" width="49.89" height="49.89" fill="#FF3565"/><path d="M 548.78 49.89 A 49.89 49.89 0 0 1  598.67 0 L 598.67 49.89" fill="#72ef62"/><rect x="0" y="49.89" width="49.89" height="49.89" fill="#72ef62"/><path d="M 0 99.78 A 49.89 49.89 0 0 1  49.89 49.89 L 0 99.78 A 49.89 49.89 0 0 0 49.89 49.89" fill="#72ef62"/><rect x="49.89" y="49.89" width="49.89" height="49.89" fill="#eed881"/><path d="M 49.89 49.89 A 49.89 49.89 0 0 0 99.78 99.78 L 99.78 49.89" fill="#eed881"/><rect x="99.77766666666666" y="49.88883333333333" width="49.88883333333333" height="49.88883333333333" fill="#d29da2"/><rect x="99.78" y="49.89" width="24.94" height="24.94" fill="#eed881"/><path d="M 99.78 74.83 A 24.94 24.94 0 0 0 124.72 49.89 L 99.78 49.89" fill="#72ef62"/><rect x="124.72" y="49.89" width="24.94" height="24.94" fill="#7579eb"/><path d="M 124.72 49.89 A 24.94 24.94 0 0 1 149.66 74.83 L 124.72 74.83" fill="#7579eb"/><rect x="99.78" y="74.83" width="24.94" height="24.94" fill="#72ef62"/><path d="M 99.78 99.77 A 24.94 24.94 0 0 1  124.72 74.83 L 99.78 99.77 A 24.94 24.94 0 0 0 124.72 74.83" fill="#FF3565"/><rect x="124.72" y="74.83" width="24.94" height="24.94" fill="#72ef62"/><path d="M 124.72 99.77 A 24.94 24.94 0 0 1  149.66 74.83 L 149.66 99.77" fill="#72ef62"/><rect x="149.67" y="49.89" width="49.89" height="49.89" fill="#eed881"/><path d="M 149.67 99.78 A 49.89 49.89 0 0 1  199.56 49.89 L 149.67 99.78 A 49.89 49.89 0 0 0 199.56 49.89" fill="#7579eb"/><rect x="199.55533333333332" y="49.88883333333333" width="49.88883333333333" height="49.88883333333333" fill="#d29da2"/><rect x="199.56" y="49.89" width="24.94" height="24.94" fill="#d4eb75"/><path d="M 199.56 49.89 A 24.94 24.94 0 0 0 224.5 74.83 L 224.5 49.89" fill="#d4eb75"/><rect x="224.5" y="49.89" width="24.94" height="24.94" fill="#d4eb75"/><path d="M 224.5 74.83 A 24.94 24.94 0 0 1  249.44 49.89 L 249.44 74.83" fill="#72ef62"/><rect x="199.56" y="74.83" width="24.94" height="24.94" fill="#72ef62"/><path d="M 199.56 99.77 A 24.94 24.94 0 0 0 224.5 74.83 L 199.56 74.83" fill="#72ef62"/><rect x="224.5" y="74.83" width="24.94" height="24.94" fill="#d4eb75"/><path d="M 224.5 99.77 A 24.94 24.94 0 0 1  249.44 74.83 L 224.5 99.77 A 24.94 24.94 0 0 0 249.44 74.83" fill="#FF3565"/><rect x="249.44" y="49.89" width="49.89" height="49.89" fill="#FF3565"/><path d="M 249.44 49.89 A 49.89 49.89 0 0 0 299.33 99.78 L 299.33 49.89" fill="#7579eb"/><rect x="299.33" y="49.89" width="49.89" height="49.89" fill="#FF3565"/><path d="M 299.33 49.89 A 49.89 49.89 0 0 0 349.21999999999997 99.78 L 349.21999999999997 49.89" fill="#d4eb75"/><rect x="349.22183333333334" y="49.88883333333333" width="49.88883333333333" height="49.88883333333333" fill="#d29da2"/><rect x="349.22" y="49.89" width="24.94" height="24.94" fill="#72ef62"/><path d="M 349.22 74.83 A 24.94 24.94 0 0 1  374.16 49.89 L 374.16 74.83" fill="#7579eb"/><rect x="374.17" y="49.89" width="24.94" height="24.94" fill="#eed881"/><path d="M 374.17 49.89 A 24.94 24.94 0 0 0 399.11 74.83 L 399.11 49.89" fill="#eed881"/><rect x="349.22" y="74.83" width="24.94" height="24.94" fill="#FF3565"/><path d="M 349.22 99.77 A 24.94 24.94 0 0 1  374.16 74.83 L 374.16 99.77" fill="#FF3565"/><rect x="374.17" y="74.83" width="24.94" height="24.94" fill="#72ef62"/><path d="M 374.17 99.77 A 24.94 24.94 0 0 0 399.11 74.83 L 374.17 74.83" fill="#FF3565"/><rect x="399.11066666666665" y="49.88883333333333" width="49.88883333333333" height="49.88883333333333" fill="#d29da2"/><rect x="399.11" y="49.89" width="24.94" height="24.94" fill="#FF3565"/><path d="M 399.11 49.89 A 24.94 24.94 0 0 0 424.05 74.83 L 424.05 49.89" fill="#d4eb75"/><rect x="424.06" y="49.89" width="24.94" height="24.94" fill="#d4eb75"/><path d="M 424.06 49.89 A 24.94 24.94 0 0 0 449 74.83 L 449 49.89" fill="#d4eb75"/><rect x="399.11" y="74.83" width="24.94" height="24.94" fill="#FF3565"/><path d="M 399.11 74.83 A 24.94 24.94 0 0 1  424.05 99.77 L 399.11 74.83 A 24.94 24.94 0 0 0 424.05 99.77" fill="#72ef62"/><rect x="424.06" y="74.83" width="24.94" height="24.94" fill="#d4eb75"/><path d="M 424.06 74.83 A 24.94 24.94 0 0 1  449 99.77 L 424.06 74.83 A 24.94 24.94 0 0 0 449 99.77" fill="#eed881"/><rect x="448.99949999999995" y="49.88883333333333" width="49.88883333333333" height="49.88883333333333" fill="#d29da2"/><rect x="449" y="49.89" width="24.94" height="24.94" fill="#d4eb75"/><path d="M 449 49.89 A 24.94 24.94 0 0 0 473.94 74.83 L 473.94 49.89" fill="#7579eb"/><rect x="473.94" y="49.89" width="24.94" height="24.94" fill="#d4eb75"/><path d="M 473.94 74.83 A 24.94 24.94 0 0 1  498.88 49.89 L 473.94 74.83 A 24.94 24.94 0 0 0 498.88 49.89" fill="#FF3565"/><rect x="449" y="74.83" width="24.94" height="24.94" fill="#d4eb75"/><path d="M 449 74.83 A 24.94 24.94 0 0 1  473.94 99.77 L 449 74.83 A 24.94 24.94 0 0 0 473.94 99.77" fill="#72ef62"/><rect x="473.94" y="74.83" width="24.94" height="24.94" fill="#d4eb75"/><path d="M 473.94 99.77 A 24.94 24.94 0 0 1  498.88 74.83 L 498.88 99.77" fill="#eed881"/><rect x="498.89" y="49.89" width="49.89" height="49.89" fill="#d4eb75"/><path d="M 498.89 49.89 A 49.89 49.89 0 0 0 548.78 99.78 L 548.78 49.89" fill="#7579eb"/><rect x="548.7771666666666" y="49.88883333333333" width="49.88883333333333" height="49.88883333333333" fill="#d29da2"/><rect x="548.78" y="49.89" width="24.94" height="24.94" fill="#eed881"/><path d="M 548.78 74.83 A 24.94 24.94 0 0 0 573.72 49.89 L 548.78 49.89" fill="#eed881"/><rect x="573.72" y="49.89" width="24.94" height="24.94" fill="#eed881"/><path d="M 573.72 74.83 A 24.94 24.94 0 0 1  598.6600000000001 49.89 L 598.6600000000001 74.83" fill="#d4eb75"/><rect x="548.78" y="74.83" width="24.94" height="24.94" fill="#eed881"/><path d="M 548.78 74.83 A 24.94 24.94 0 0 1 573.72 99.77 L 548.78 99.77" fill="#7579eb"/><rect x="573.72" y="74.83" width="24.94" height="24.94" fill="#72ef62"/><path d="M 573.72 99.77 A 24.94 24.94 0 0 1  598.6600000000001 74.83 L 598.6600000000001 99.77" fill="#d4eb75"/><rect x="0" y="99.77766666666666" width="49.88883333333333" height="49.88883333333333" fill="#d29da2"/><rect x="0" y="99.78" width="24.94" height="24.94" fill="#d4eb75"/><path d="M 0 99.78 A 24.94 24.94 0 0 1 24.94 124.72 L 0 124.72" fill="#FF3565"/><rect x="24.94" y="99.78" width="24.94" height="24.94" fill="#FF3565"/><path d="M 24.94 99.78 A 24.94 24.94 0 0 0 49.88 124.72 L 49.88 99.78" fill="#eed881"/><rect x="0" y="124.72" width="24.94" height="24.94" fill="#7579eb"/><path d="M 0 149.66 A 24.94 24.94 0 0 0 24.94 124.72 L 0 124.72" fill="#72ef62"/><rect x="24.94" y="124.72" width="24.94" height="24.94" fill="#eed881"/><path d="M 24.94 149.66 A 24.94 24.94 0 0 0 49.88 124.72 L 24.94 124.72" fill="#7579eb"/><rect x="49.88883333333333" y="99.77766666666666" width="49.88883333333333" height="49.88883333333333" fill="#d29da2"/><rect x="49.89" y="99.78" width="24.94" height="24.94" fill="#eed881"/><path d="M 49.89 124.72 A 24.94 24.94 0 0 1  74.83 99.78 L 49.89 124.72 A 24.94 24.94 0 0 0 74.83 99.78" fill="#FF3565"/><rect x="74.83" y="99.78" width="24.94" height="24.94" fill="#7579eb"/><path d="M 74.83 99.78 A 24.94 24.94 0 0 1  99.77 124.72 L 74.83 99.78 A 24.94 24.94 0 0 0 99.77 124.72" fill="#FF3565"/><rect x="49.89" y="124.72" width="24.94" height="24.94" fill="#eed881"/><path d="M 49.89 124.72 A 24.94 24.94 0 0 1 74.83 149.66 L 49.89 149.66" fill="#d4eb75"/><rect x="74.83" y="124.72" width="24.94" height="24.94" fill="#72ef62"/><path d="M 74.83 124.72 A 24.94 24.94 0 0 1  99.77 149.66 L 74.83 124.72 A 24.94 24.94 0 0 0 99.77 149.66" fill="#eed881"/><rect x="99.77766666666666" y="99.77766666666666" width="49.88883333333333" height="49.88883333333333" fill="#d29da2"/><rect x="99.78" y="99.78" width="24.94" height="24.94" fill="#FF3565"/><path d="M 99.78 99.78 A 24.94 24.94 0 0 1 124.72 124.72 L 99.78 124.72" fill="#7579eb"/><rect x="124.72" y="99.78" width="24.94" height="24.94" fill="#eed881"/><path d="M 124.72 124.72 A 24.94 24.94 0 0 1  149.66 99.78 L 149.66 124.72" fill="#eed881"/><rect x="99.78" y="124.72" width="24.94" height="24.94" fill="#eed881"/><path d="M 99.78 124.72 A 24.94 24.94 0 0 1 124.72 149.66 L 99.78 149.66" fill="#FF3565"/><rect x="124.72" y="124.72" width="24.94" height="24.94" fill="#eed881"/><path d="M 124.72 124.72 A 24.94 24.94 0 0 0 149.66 149.66 L 149.66 124.72" fill="#d4eb75"/><rect x="149.67" y="99.78" width="49.89" height="49.89" fill="#7579eb"/><path d="M 149.67 149.67000000000002 A 49.89 49.89 0 0 1  199.56 99.78 L 149.67 149.67000000000002 A 49.89 49.89 0 0 0 199.56 99.78" fill="#7579eb"/><rect x="199.56" y="99.78" width="49.89" height="49.89" fill="#72ef62"/><path d="M 199.56 149.67000000000002 A 49.89 49.89 0 0 0 249.45 99.78 L 199.56 99.78" fill="#d4eb75"/><rect x="249.44" y="99.78" width="49.89" height="49.89" fill="#72ef62"/><path d="M 249.44 99.78 A 49.89 49.89 0 0 0 299.33 149.67000000000002 L 299.33 99.78" fill="#72ef62"/><rect x="299.33" y="99.78" width="49.89" height="49.89" fill="#FF3565"/><path d="M 299.33 99.78 A 49.89 49.89 0 0 1  349.21999999999997 149.67000000000002 L 299.33 99.78 A 49.89 49.89 0 0 0 349.21999999999997 149.67000000000002" fill="#FF3565"/><rect x="349.22183333333334" y="99.77766666666666" width="49.88883333333333" height="49.88883333333333" fill="#d29da2"/><rect x="349.22" y="99.78" width="24.94" height="24.94" fill="#d4eb75"/><path d="M 349.22 124.72 A 24.94 24.94 0 0 0 374.16 99.78 L 349.22 99.78" fill="#d4eb75"/><rect x="374.17" y="99.78" width="24.94" height="24.94" fill="#FF3565"/><path d="M 374.17 124.72 A 24.94 24.94 0 0 1  399.11 99.78 L 374.17 124.72 A 24.94 24.94 0 0 0 399.11 99.78" fill="#7579eb"/><rect x="349.22" y="124.72" width="24.94" height="24.94" fill="#72ef62"/><path d="M 349.22 149.66 A 24.94 24.94 0 0 1  374.16 124.72 L 349.22 149.66 A 24.94 24.94 0 0 0 374.16 124.72" fill="#FF3565"/><rect x="374.17" y="124.72" width="24.94" height="24.94" fill="#FF3565"/><path d="M 374.17 124.72 A 24.94 24.94 0 0 1 399.11 149.66 L 374.17 149.66" fill="#72ef62"/><rect x="399.11" y="99.78" width="49.89" height="49.89" fill="#7579eb"/><path d="M 399.11 99.78 A 49.89 49.89 0 0 0 449 149.67000000000002 L 449 99.78" fill="#eed881"/><rect x="448.99949999999995" y="99.77766666666666" width="49.88883333333333" height="49.88883333333333" fill="#d29da2"/><rect x="449" y="99.78" width="24.94" height="24.94" fill="#d4eb75"/><path d="M 449 124.72 A 24.94 24.94 0 0 0 473.94 99.78 L 449 99.78" fill="#FF3565"/><rect x="473.94" y="99.78" width="24.94" height="24.94" fill="#FF3565"/><path d="M 473.94 124.72 A 24.94 24.94 0 0 0 498.88 99.78 L 473.94 99.78" fill="#d4eb75"/><rect x="449" y="124.72" width="24.94" height="24.94" fill="#d4eb75"/><path d="M 449 149.66 A 24.94 24.94 0 0 1  473.94 124.72 L 449 149.66 A 24.94 24.94 0 0 0 473.94 124.72" fill="#FF3565"/><rect x="473.94" y="124.72" width="24.94" height="24.94" fill="#eed881"/><path d="M 473.94 149.66 A 24.94 24.94 0 0 0 498.88 124.72 L 473.94 124.72" fill="#72ef62"/><rect x="498.89" y="99.78" width="49.89" height="49.89" fill="#72ef62"/><path d="M 498.89 149.67000000000002 A 49.89 49.89 0 0 1  548.78 99.78 L 498.89 149.67000000000002 A 49.89 49.89 0 0 0 548.78 99.78" fill="#eed881"/><rect x="548.78" y="99.78" width="49.89" height="49.89" fill="#FF3565"/><path d="M 548.78 99.78 A 49.89 49.89 0 0 0 598.67 149.67000000000002 L 598.67 99.78" fill="#FF3565"/><rect x="0" y="149.66649999999998" width="49.88883333333333" height="49.88883333333333" fill="#d29da2"/><rect x="0" y="149.67" width="24.94" height="24.94" fill="#72ef62"/><path d="M 0 174.60999999999999 A 24.94 24.94 0 0 1  24.94 149.67 L 24.94 174.60999999999999" fill="#eed881"/><rect x="24.94" y="149.67" width="24.94" height="24.94" fill="#eed881"/><path d="M 24.94 174.60999999999999 A 24.94 24.94 0 0 0 49.88 149.67 L 24.94 149.67" fill="#d4eb75"/><rect x="0" y="174.61" width="24.94" height="24.94" fill="#eed881"/><path d="M 0 199.55 A 24.94 24.94 0 0 1  24.94 174.61 L 24.94 199.55" fill="#72ef62"/><rect x="24.94" y="174.61" width="24.94" height="24.94" fill="#FF3565"/><path d="M 24.94 199.55 A 24.94 24.94 0 0 1  49.88 174.61 L 24.94 199.55 A 24.94 24.94 0 0 0 49.88 174.61" fill="#72ef62"/><rect x="49.88883333333333" y="149.66649999999998" width="49.88883333333333" height="49.88883333333333" fill="#d29da2"/><rect x="49.89" y="149.67" width="24.94" height="24.94" fill="#72ef62"/><path d="M 49.89 174.60999999999999 A 24.94 24.94 0 0 1  74.83 149.67 L 74.83 174.60999999999999" fill="#eed881"/><rect x="74.83" y="149.67" width="24.94" height="24.94" fill="#eed881"/><path d="M 74.83 149.67 A 24.94 24.94 0 0 0 99.77 174.60999999999999 L 99.77 149.67" fill="#eed881"/><rect x="49.89" y="174.61" width="24.94" height="24.94" fill="#eed881"/><path d="M 49.89 199.55 A 24.94 24.94 0 0 1  74.83 174.61 L 74.83 199.55" fill="#eed881"/><rect x="74.83" y="174.61" width="24.94" height="24.94" fill="#eed881"/><path d="M 74.83 199.55 A 24.94 24.94 0 0 0 99.77 174.61 L 74.83 174.61" fill="#7579eb"/><rect x="99.77766666666666" y="149.66649999999998" width="49.88883333333333" height="49.88883333333333" fill="#d29da2"/><rect x="99.78" y="149.67" width="24.94" height="24.94" fill="#eed881"/><path d="M 99.78 174.60999999999999 A 24.94 24.94 0 0 1  124.72 149.67 L 99.78 174.60999999999999 A 24.94 24.94 0 0 0 124.72 149.67" fill="#d4eb75"/><rect x="124.72" y="149.67" width="24.94" height="24.94" fill="#7579eb"/><path d="M 124.72 149.67 A 24.94 24.94 0 0 1 149.66 174.60999999999999 L 124.72 174.60999999999999" fill="#d4eb75"/><rect x="99.78" y="174.61" width="24.94" height="24.94" fill="#d4eb75"/><path d="M 99.78 174.61 A 24.94 24.94 0 0 1  124.72 199.55 L 99.78 174.61 A 24.94 24.94 0 0 0 124.72 199.55" fill="#FF3565"/><rect x="124.72" y="174.61" width="24.94" height="24.94" fill="#72ef62"/><path d="M 124.72 174.61 A 24.94 24.94 0 0 1 149.66 199.55 L 124.72 199.55" fill="#d4eb75"/><rect x="149.67" y="149.67" width="49.89" height="49.89" fill="#eed881"/><path d="M 149.67 199.56 A 49.89 49.89 0 0 1  199.56 149.67 L 149.67 199.56 A 49.89 49.89 0 0 0 199.56 149.67" fill="#7579eb"/><rect x="199.56" y="149.67" width="49.89" height="49.89" fill="#d4eb75"/><path d="M 199.56 199.56 A 49.89 49.89 0 0 1  249.45 149.67 L 249.45 199.56" fill="#7579eb"/><rect x="249.44" y="149.67" width="49.89" height="49.89" fill="#d4eb75"/><path d="M 249.44 199.56 A 49.89 49.89 0 0 0 299.33 149.67 L 249.44 149.67" fill="#d4eb75"/><rect x="299.33" y="149.67" width="49.89" height="49.89" fill="#FF3565"/><path d="M 299.33 199.56 A 49.89 49.89 0 0 0 349.21999999999997 149.67 L 299.33 149.67" fill="#d4eb75"/><rect x="349.22" y="149.67" width="49.89" height="49.89" fill="#72ef62"/><path d="M 349.22 149.67 A 49.89 49.89 0 0 1  399.11 199.56 L 349.22 149.67 A 49.89 49.89 0 0 0 399.11 199.56" fill="#eed881"/><rect x="399.11" y="149.67" width="49.89" height="49.89" fill="#eed881"/><path d="M 399.11 199.56 A 49.89 49.89 0 0 0 449 149.67 L 399.11 149.67" fill="#FF3565"/><rect x="449" y="149.67" width="49.89" height="49.89" fill="#d4eb75"/><path d="M 449 149.67 A 49.89 49.89 0 0 0 498.89 199.56 L 498.89 149.67" fill="#FF3565"/><rect x="498.89" y="149.67" width="49.89" height="49.89" fill="#7579eb"/><path d="M 498.89 149.67 A 49.89 49.89 0 0 1  548.78 199.56 L 498.89 149.67 A 49.89 49.89 0 0 0 548.78 199.56" fill="#eed881"/><rect x="548.7771666666666" y="149.66649999999998" width="49.88883333333333" height="49.88883333333333" fill="#d29da2"/><rect x="548.78" y="149.67" width="24.94" height="24.94" fill="#d4eb75"/><path d="M 548.78 174.60999999999999 A 24.94 24.94 0 0 0 573.72 149.67 L 548.78 149.67" fill="#7579eb"/><rect x="573.72" y="149.67" width="24.94" height="24.94" fill="#7579eb"/><path d="M 573.72 174.60999999999999 A 24.94 24.94 0 0 1  598.6600000000001 149.67 L 573.72 174.60999999999999 A 24.94 24.94 0 0 0 598.6600000000001 149.67" fill="#FF3565"/><rect x="548.78" y="174.61" width="24.94" height="24.94" fill="#eed881"/><path d="M 548.78 174.61 A 24.94 24.94 0 0 0 573.72 199.55 L 573.72 174.61" fill="#eed881"/><rect x="573.72" y="174.61" width="24.94" height="24.94" fill="#d4eb75"/><path d="M 573.72 174.61 A 24.94 24.94 0 0 1 598.6600000000001 199.55 L 573.72 199.55" fill="#72ef62"/><rect x="0" y="199.56" width="49.89" height="49.89" fill="#72ef62"/><path d="M 0 199.56 A 49.89 49.89 0 0 1 49.89 249.45 L 0 249.45" fill="#72ef62"/><rect x="49.89" y="199.56" width="49.89" height="49.89" fill="#7579eb"/><path d="M 49.89 199.56 A 49.89 49.89 0 0 1 99.78 249.45 L 49.89 249.45" fill="#72ef62"/><rect x="99.78" y="199.56" width="49.89" height="49.89" fill="#d4eb75"/><path d="M 99.78 249.45 A 49.89 49.89 0 0 1  149.67000000000002 199.56 L 99.78 249.45 A 49.89 49.89 0 0 0 149.67000000000002 199.56" fill="#d4eb75"/><rect x="149.67" y="199.56" width="49.89" height="49.89" fill="#7579eb"/><path d="M 149.67 199.56 A 49.89 49.89 0 0 1  199.56 249.45 L 149.67 199.56 A 49.89 49.89 0 0 0 199.56 249.45" fill="#7579eb"/><rect x="199.55533333333332" y="199.55533333333332" width="49.88883333333333" height="49.88883333333333" fill="#d29da2"/><rect x="199.56" y="199.56" width="24.94" height="24.94" fill="#d4eb75"/><path d="M 199.56 199.56 A 24.94 24.94 0 0 1  224.5 224.5 L 199.56 199.56 A 24.94 24.94 0 0 0 224.5 224.5" fill="#72ef62"/><rect x="224.5" y="199.56" width="24.94" height="24.94" fill="#FF3565"/><path d="M 224.5 224.5 A 24.94 24.94 0 0 1  249.44 199.56 L 224.5 224.5 A 24.94 24.94 0 0 0 249.44 199.56" fill="#d4eb75"/><rect x="199.56" y="224.5" width="24.94" height="24.94" fill="#72ef62"/><path d="M 199.56 224.5 A 24.94 24.94 0 0 1 224.5 249.44 L 199.56 249.44" fill="#d4eb75"/><rect x="224.5" y="224.5" width="24.94" height="24.94" fill="#d4eb75"/><path d="M 224.5 249.44 A 24.94 24.94 0 0 1  249.44 224.5 L 224.5 249.44 A 24.94 24.94 0 0 0 249.44 224.5" fill="#eed881"/><rect x="249.44416666666666" y="199.55533333333332" width="49.88883333333333" height="49.88883333333333" fill="#d29da2"/><rect x="249.44" y="199.56" width="24.94" height="24.94" fill="#7579eb"/><path d="M 249.44 224.5 A 24.94 24.94 0 0 1  274.38 199.56 L 249.44 224.5 A 24.94 24.94 0 0 0 274.38 199.56" fill="#eed881"/><rect x="274.39" y="199.56" width="24.94" height="24.94" fill="#eed881"/><path d="M 274.39 199.56 A 24.94 24.94 0 0 1 299.33 224.5 L 274.39 224.5" fill="#eed881"/><rect x="249.44" y="224.5" width="24.94" height="24.94" fill="#FF3565"/><path d="M 249.44 249.44 A 24.94 24.94 0 0 1  274.38 224.5 L 249.44 249.44 A 24.94 24.94 0 0 0 274.38 224.5" fill="#eed881"/><rect x="274.39" y="224.5" width="24.94" height="24.94" fill="#72ef62"/><path d="M 274.39 224.5 A 24.94 24.94 0 0 1  299.33 249.44 L 274.39 224.5 A 24.94 24.94 0 0 0 299.33 249.44" fill="#72ef62"/><rect x="299.33" y="199.56" width="49.89" height="49.89" fill="#d4eb75"/><path d="M 299.33 249.45 A 49.89 49.89 0 0 0 349.21999999999997 199.56 L 299.33 199.56" fill="#72ef62"/><rect x="349.22" y="199.56" width="49.89" height="49.89" fill="#d4eb75"/><path d="M 349.22 199.56 A 49.89 49.89 0 0 1  399.11 249.45 L 349.22 199.56 A 49.89 49.89 0 0 0 399.11 249.45" fill="#FF3565"/><rect x="399.11" y="199.56" width="49.89" height="49.89" fill="#FF3565"/><path d="M 399.11 249.45 A 49.89 49.89 0 0 1  449 199.56 L 449 249.45" fill="#eed881"/><rect x="448.99949999999995" y="199.55533333333332" width="49.88883333333333" height="49.88883333333333" fill="#d29da2"/><rect x="449" y="199.56" width="24.94" height="24.94" fill="#72ef62"/><path d="M 449 224.5 A 24.94 24.94 0 0 1  473.94 199.56 L 473.94 224.5" fill="#eed881"/><rect x="473.94" y="199.56" width="24.94" height="24.94" fill="#eed881"/><path d="M 473.94 199.56 A 24.94 24.94 0 0 1  498.88 224.5 L 473.94 199.56 A 24.94 24.94 0 0 0 498.88 224.5" fill="#FF3565"/><rect x="449" y="224.5" width="24.94" height="24.94" fill="#FF3565"/><path d="M 449 224.5 A 24.94 24.94 0 0 0 473.94 249.44 L 473.94 224.5" fill="#eed881"/><rect x="473.94" y="224.5" width="24.94" height="24.94" fill="#7579eb"/><path d="M 473.94 224.5 A 24.94 24.94 0 0 0 498.88 249.44 L 498.88 224.5" fill="#eed881"/><rect x="498.8883333333333" y="199.55533333333332" width="49.88883333333333" height="49.88883333333333" fill="#d29da2"/><rect x="498.89" y="199.56" width="24.94" height="24.94" fill="#7579eb"/><path d="M 498.89 199.56 A 24.94 24.94 0 0 1 523.83 224.5 L 498.89 224.5" fill="#d4eb75"/><rect x="523.83" y="199.56" width="24.94" height="24.94" fill="#72ef62"/><path d="M 523.83 224.5 A 24.94 24.94 0 0 1  548.7700000000001 199.56 L 548.7700000000001 224.5" fill="#d4eb75"/><rect x="498.89" y="224.5" width="24.94" height="24.94" fill="#7579eb"/><path d="M 498.89 249.44 A 24.94 24.94 0 0 1  523.83 224.5 L 498.89 249.44 A 24.94 24.94 0 0 0 523.83 224.5" fill="#7579eb"/><rect x="523.83" y="224.5" width="24.94" height="24.94" fill="#72ef62"/><path d="M 523.83 224.5 A 24.94 24.94 0 0 1  548.7700000000001 249.44 L 523.83 224.5 A 24.94 24.94 0 0 0 548.7700000000001 249.44" fill="#72ef62"/><rect x="548.78" y="199.56" width="49.89" height="49.89" fill="#d4eb75"/><path d="M 548.78 199.56 A 49.89 49.89 0 0 1 598.67 249.45 L 548.78 249.45" fill="#7579eb"/><rect x="0" y="249.44" width="49.89" height="49.89" fill="#d4eb75"/><path d="M 0 249.44 A 49.89 49.89 0 0 1 49.89 299.33 L 0 299.33" fill="#7579eb"/><rect x="49.88883333333333" y="249.44416666666666" width="49.88883333333333" height="49.88883333333333" fill="#d29da2"/><rect x="49.89" y="249.44" width="24.94" height="24.94" fill="#7579eb"/><path d="M 49.89 249.44 A 24.94 24.94 0 0 1  74.83 274.38 L 49.89 249.44 A 24.94 24.94 0 0 0 74.83 274.38" fill="#72ef62"/><rect x="74.83" y="249.44" width="24.94" height="24.94" fill="#7579eb"/><path d="M 74.83 249.44 A 24.94 24.94 0 0 1 99.77 274.38 L 74.83 274.38" fill="#FF3565"/><rect x="49.89" y="274.39" width="24.94" height="24.94" fill="#d4eb75"/><path d="M 49.89 299.33 A 24.94 24.94 0 0 1  74.83 274.39 L 49.89 299.33 A 24.94 24.94 0 0 0 74.83 274.39" fill="#FF3565"/><rect x="74.83" y="274.39" width="24.94" height="24.94" fill="#FF3565"/><path d="M 74.83 274.39 A 24.94 24.94 0 0 1 99.77 299.33 L 74.83 299.33" fill="#eed881"/><rect x="99.77766666666666" y="249.44416666666666" width="49.88883333333333" height="49.88883333333333" fill="#d29da2"/><rect x="99.78" y="249.44" width="24.94" height="24.94" fill="#eed881"/><path d="M 99.78 249.44 A 24.94 24.94 0 0 0 124.72 274.38 L 124.72 249.44" fill="#d4eb75"/><rect x="124.72" y="249.44" width="24.94" height="24.94" fill="#72ef62"/><path d="M 124.72 274.38 A 24.94 24.94 0 0 1  149.66 249.44 L 124.72 274.38 A 24.94 24.94 0 0 0 149.66 249.44" fill="#d4eb75"/><rect x="99.78" y="274.39" width="24.94" height="24.94" fill="#7579eb"/><path d="M 99.78 299.33 A 24.94 24.94 0 0 1  124.72 274.39 L 124.72 299.33" fill="#d4eb75"/><rect x="124.72" y="274.39" width="24.94" height="24.94" fill="#72ef62"/><path d="M 124.72 274.39 A 24.94 24.94 0 0 0 149.66 299.33 L 149.66 274.39" fill="#FF3565"/><rect x="149.67" y="249.44" width="49.89" height="49.89" fill="#eed881"/><path d="M 149.67 249.44 A 49.89 49.89 0 0 0 199.56 299.33 L 199.56 249.44" fill="#FF3565"/><rect x="199.56" y="249.44" width="49.89" height="49.89" fill="#72ef62"/><path d="M 199.56 299.33 A 49.89 49.89 0 0 1  249.45 249.44 L 199.56 299.33 A 49.89 49.89 0 0 0 249.45 249.44" fill="#7579eb"/><rect x="249.44416666666666" y="249.44416666666666" width="49.88883333333333" height="49.88883333333333" fill="#d29da2"/><rect x="249.44" y="249.44" width="24.94" height="24.94" fill="#d4eb75"/><path d="M 249.44 249.44 A 24.94 24.94 0 0 1  274.38 274.38 L 249.44 249.44 A 24.94 24.94 0 0 0 274.38 274.38" fill="#FF3565"/><rect x="274.39" y="249.44" width="24.94" height="24.94" fill="#FF3565"/><path d="M 274.39 249.44 A 24.94 24.94 0 0 0 299.33 274.38 L 299.33 249.44" fill="#72ef62"/><rect x="249.44" y="274.39" width="24.94" height="24.94" fill="#FF3565"/><path d="M 249.44 274.39 A 24.94 24.94 0 0 1 274.38 299.33 L 249.44 299.33" fill="#d4eb75"/><rect x="274.39" y="274.39" width="24.94" height="24.94" fill="#FF3565"/><path d="M 274.39 274.39 A 24.94 24.94 0 0 1 299.33 299.33 L 274.39 299.33" fill="#7579eb"/><rect x="299.33299999999997" y="249.44416666666666" width="49.88883333333333" height="49.88883333333333" fill="#d29da2"/><rect x="299.33" y="249.44" width="24.94" height="24.94" fill="#FF3565"/><path d="M 299.33 249.44 A 24.94 24.94 0 0 0 324.27 274.38 L 324.27 249.44" fill="#72ef62"/><rect x="324.28" y="249.44" width="24.94" height="24.94" fill="#FF3565"/><path d="M 324.28 249.44 A 24.94 24.94 0 0 1  349.21999999999997 274.38 L 324.28 249.44 A 24.94 24.94 0 0 0 349.21999999999997 274.38" fill="#eed881"/><rect x="299.33" y="274.39" width="24.94" height="24.94" fill="#FF3565"/><path d="M 299.33 274.39 A 24.94 24.94 0 0 1  324.27 299.33 L 299.33 274.39 A 24.94 24.94 0 0 0 324.27 299.33" fill="#d4eb75"/><rect x="324.28" y="274.39" width="24.94" height="24.94" fill="#7579eb"/><path d="M 324.28 274.39 A 24.94 24.94 0 0 0 349.21999999999997 299.33 L 349.21999999999997 274.39" fill="#d4eb75"/><rect x="349.22" y="249.44" width="49.89" height="49.89" fill="#eed881"/><path d="M 349.22 299.33 A 49.89 49.89 0 0 1  399.11 249.44 L 399.11 299.33" fill="#eed881"/><rect x="399.11066666666665" y="249.44416666666666" width="49.88883333333333" height="49.88883333333333" fill="#d29da2"/><rect x="399.11" y="249.44" width="24.94" height="24.94" fill="#FF3565"/><path d="M 399.11 274.38 A 24.94 24.94 0 0 0 424.05 249.44 L 399.11 249.44" fill="#eed881"/><rect x="424.06" y="249.44" width="24.94" height="24.94" fill="#72ef62"/><path d="M 424.06 274.38 A 24.94 24.94 0 0 1  449 249.44 L 424.06 274.38 A 24.94 24.94 0 0 0 449 249.44" fill="#7579eb"/><rect x="399.11" y="274.39" width="24.94" height="24.94" fill="#d4eb75"/><path d="M 399.11 299.33 A 24.94 24.94 0 0 1  424.05 274.39 L 399.11 299.33 A 24.94 24.94 0 0 0 424.05 274.39" fill="#72ef62"/><rect x="424.06" y="274.39" width="24.94" height="24.94" fill="#72ef62"/><path d="M 424.06 299.33 A 24.94 24.94 0 0 1  449 274.39 L 449 299.33" fill="#72ef62"/><rect x="449" y="249.44" width="49.89" height="49.89" fill="#7579eb"/><path d="M 449 249.44 A 49.89 49.89 0 0 0 498.89 299.33 L 498.89 249.44" fill="#72ef62"/><rect x="498.8883333333333" y="249.44416666666666" width="49.88883333333333" height="49.88883333333333" fill="#d29da2"/><rect x="498.89" y="249.44" width="24.94" height="24.94" fill="#eed881"/><path d="M 498.89 249.44 A 24.94 24.94 0 0 1 523.83 274.38 L 498.89 274.38" fill="#eed881"/><rect x="523.83" y="249.44" width="24.94" height="24.94" fill="#7579eb"/><path d="M 523.83 249.44 A 24.94 24.94 0 0 1  548.7700000000001 274.38 L 523.83 249.44 A 24.94 24.94 0 0 0 548.7700000000001 274.38" fill="#7579eb"/><rect x="498.89" y="274.39" width="24.94" height="24.94" fill="#d4eb75"/><path d="M 498.89 299.33 A 24.94 24.94 0 0 0 523.83 274.39 L 498.89 274.39" fill="#eed881"/><rect x="523.83" y="274.39" width="24.94" height="24.94" fill="#FF3565"/><path d="M 523.83 299.33 A 24.94 24.94 0 0 1  548.7700000000001 274.39 L 523.83 299.33 A 24.94 24.94 0 0 0 548.7700000000001 274.39" fill="#7579eb"/><rect x="548.7771666666666" y="249.44416666666666" width="49.88883333333333" height="49.88883333333333" fill="#d29da2"/><rect x="548.78" y="249.44" width="24.94" height="24.94" fill="#7579eb"/><path d="M 548.78 274.38 A 24.94 24.94 0 0 1  573.72 249.44 L 573.72 274.38" fill="#d4eb75"/><rect x="573.72" y="249.44" width="24.94" height="24.94" fill="#FF3565"/><path d="M 573.72 249.44 A 24.94 24.94 0 0 1 598.6600000000001 274.38 L 573.72 274.38" fill="#FF3565"/><rect x="548.78" y="274.39" width="24.94" height="24.94" fill="#72ef62"/><path d="M 548.78 299.33 A 24.94 24.94 0 0 1  573.72 274.39 L 573.72 299.33" fill="#d4eb75"/><rect x="573.72" y="274.39" width="24.94" height="24.94" fill="#eed881"/><path d="M 573.72 274.39 A 24.94 24.94 0 0 0 598.6600000000001 299.33 L 598.6600000000001 274.39" fill="#7579eb"/></g></svg>