<?xml version="1.0" standalone="no"?><svg xmlns:xlink="http://www.w3.org/1999/xlink" xmlns="http://www.w3.org/2000/svg" viewBox="0 0 1000 599.988553195447" preserveAspectRatio="xMaxYMax slice"><g transform="scale(1.430850569120814)"><rect x="0" y="0" width="698.8883333333332" height="419.33299999999997" fill="#ffffff"/><rect x="0" y="0" width="69.89" height="69.89" fill="#80BCA3"/><path d="M 0 69.89 A 69.89 69.89 0 0 1  69.89 0 L 0 69.89 A 69.89 69.89 0 0 0 69.89 0" fill="#BF4D28"/><rect x="69.89" y="0" width="69.89" height="69.89" fill="#BF4D28"/><path d="M 69.89 69.89 A 69.89 69.89 0 0 0 139.78 0 L 69.89 0" fill="#E6AC27"/><rect x="139.78" y="0" width="69.89" height="69.89" fill="#80BCA3"/><path d="M 139.78 69.89 A 69.89 69.89 0 0 0 209.67000000000002 0 L 139.78 0" fill="#E6AC27"/><rect x="209.67" y="0" width="69.89" height="69.89" fill="#655643"/><path d="M 209.67 69.89 A 69.89 69.89 0 0 1  279.56 0 L 209.67 69.89 A 69.89 69.89 0 0 0 279.56 0" fill="#F6F7BD"/><rect x="279.5553333333333" y="0" width="69.88883333333332" height="69.88883333333332" fill="#ffffff"/><rect x="279.56" y="0" width="34.94" height="34.94" fill="#E6AC27"/><path d="M 279.56 34.94 A 34.94 34.94 0 0 0 314.5 0 L 279.56 0" fill="#E6AC27"/><rect x="314.5" y="0" width="34.94" height="34.94" fill="#F6F7BD"/><path d="M 314.5 34.94 A 34.94 34.94 0 0 0 349.44 0 L 314.5 0" fill="#80BCA3"/><rect x="279.56" y="34.94" width="34.94" height="34.94" fill="#80BCA3"/><path d="M 279.56 69.88 A 34.94 34.94 0 0 0 314.5 34.94 L 279.56 34.94" fill="#80BCA3"/><rect x="314.5" y="34.94" width="34.94" height="34.94" fill="#F6F7BD"/><path d="M 314.5 69.88 A 34.94 34.94 0 0 1  349.44 34.94 L 349.44 69.88" fill="#E6AC27"/><rect x="349.44" y="0" width="69.89" height="69.89" fill="#BF4D28"/><path d="M 349.44 0 A 69.89 69.89 0 0 1  419.33 69.89 L 349.44 0 A 69.89 69.89 0 0 0 419.33 69.89" fill="#BF4D28"/><rect x="419.33299999999997" y="0" width="69.88883333333332" height="69.88883333333332" fill="#ffffff"/><rect x="419.33" y="0" width="34.94" height="34.94" fill="#F6F7BD"/><path d="M 419.33 0 A 34.94 34.94 0 0 0 454.27 34.94 L 454.27 0" fill="#BF4D28"/><rect x="454.28" y="0" width="34.94" height="34.94" fill="#80BCA3"/><path d="M 454.28 34.94 A 34.94 34.94 0 0 0 489.21999999999997 0 L 454.28 0" fill="#655643"/><rect x="419.33" y="34.94" width="34.94" height="34.94" fill="#80BCA3"/><path d="M 419.33 69.88 A 34.94 34.94 0 0 0 454.27 34.94 L 419.33 34.94" fill="#80BCA3"/><rect x="454.28" y="34.94" width="34.94" height="34.94" fill="#BF4D28"/><path d="M 454.28 69.88 A 34.94 34.94 0 0 0 489.21999999999997 34.94 L 454.28 34.94" fill="#655643"/><rect x="489.2218333333333" y="0" width="69.88883333333332" height="69.88883333333332" fill="#ffffff"/><rect x="489.22" y="0" width="34.94" height="34.94" fill="#BF4D28"/><path d="M 489.22 0 A 34.94 34.94 0 0 1 524.1600000000001 34.94 L 489.22 34.94" fill="#F6F7BD"/><rect x="524.17" y="0" width="34.94" height="34.94" fill="#BF4D28"/><path d="M 524.17 0 A 34.94 34.94 0 0 0 559.1099999999999 34.94 L 559.1099999999999 0" fill="#80BCA3"/><rect x="489.22" y="34.94" width="34.94" height="34.94" fill="#E6AC27"/><path d="M 489.22 34.94 A 34.94 34.94 0 0 1 524.1600000000001 69.88 L 489.22 69.88" fill="#E6AC27"/><rect x="524.17" y="34.94" width="34.94" height="34.94" fill="#E6AC27"/><path d="M 524.17 34.94 A 34.94 34.94 0 0 1 559.1099999999999 69.88 L 524.17 69.88" fill="#BF4D28"/><rect x="559.11" y="0" width="69.89" height="69.89" fill="#BF4D28"/><path d="M 559.11 0 A 69.89 69.89 0 0 1 629 69.89 L 559.11 69.89" fill="#F6F7BD"/><rect x="628.9994999999999" y="0" width="69.88883333333332" height="69.88883333333332" fill="#ffffff"/><rect x="629" y="0" width="34.94" height="34.94" fill="#655643"/><path d="M 629 0 A 34.94 34.94 0 0 1  663.94 34.94 L 629 0 A 34.94 34.94 0 0 0 663.94 34.94" fill="#655643"/><rect x="663.94" y="0" width="34.94" height="34.94" fill="#80BCA3"/><path d="M 663.94 0 A 34.94 34.94 0 0 1  698.8800000000001 34.94 L 663.94 0 A 34.94 34.94 0 0 0 698.8800000000001 34.94" fill="#F6F7BD"/><rect x="629" y="34.94" width="34.94" height="34.94" fill="#F6F7BD"/><path d="M 629 69.88 A 34.94 34.94 0 0 1  663.94 34.94 L 663.94 69.88" fill="#655643"/><rect x="663.94" y="34.94" width="34.94" height="34.94" fill="#80BCA3"/><path d="M 663.94 69.88 A 34.94 34.94 0 0 0 698.8800000000001 34.94 L 663.94 34.94" fill="#E6AC27"/><rect x="0" y="69.89" width="69.89" height="69.89" fill="#655643"/><path d="M 0 139.78 A 69.89 69.89 0 0 1  69.89 69.89 L 0 139.78 A 69.89 69.89 0 0 0 69.89 69.89" fill="#E6AC27"/><rect x="69.89" y="69.89" width="69.89" height="69.89" fill="#E6AC27"/><path d="M 69.89 139.78 A 69.89 69.89 0 0 1  139.78 69.89 L 69.89 139.78 A 69.89 69.89 0 0 0 139.78 69.89" fill="#F6F7BD"/><rect x="139.78" y="69.89" width="69.89" height="69.89" fill="#80BCA3"/><path d="M 139.78 69.89 A 69.89 69.89 0 0 1 209.67000000000002 139.78 L 139.78 139.78" fill="#BF4D28"/><rect x="209.67" y="69.89" width="69.89" height="69.89" fill="#80BCA3"/><path d="M 209.67 69.89 A 69.89 69.89 0 0 1  279.56 139.78 L 209.67 69.89 A 69.89 69.89 0 0 0 279.56 139.78" fill="#655643"/><rect x="279.5553333333333" y="69.88883333333332" width="69.88883333333332" height="69.88883333333332" fill="#ffffff"/><rect x="279.56" y="69.89" width="34.94" height="34.94" fill="#F6F7BD"/><path d="M 279.56 69.89 A 34.94 34.94 0 0 1  314.5 104.83 L 279.56 69.89 A 34.94 34.94 0 0 0 314.5 104.83" fill="#80BCA3"/><rect x="314.5" y="69.89" width="34.94" height="34.94" fill="#F6F7BD"/><path d="M 314.5 104.83 A 34.94 34.94 0 0 1  349.44 69.89 L 349.44 104.83" fill="#80BCA3"/><rect x="279.56" y="104.83" width="34.94" height="34.94" fill="#E6AC27"/><path d="M 279.56 139.76999999999998 A 34.94 34.94 0 0 0 314.5 104.83 L 279.56 104.83" fill="#E6AC27"/><rect x="314.5" y="104.83" width="34.94" height="34.94" fill="#BF4D28"/><path d="M 314.5 104.83 A 34.94 34.94 0 0 0 349.44 139.76999999999998 L 349.44 104.83" fill="#E6AC27"/><rect x="349.4441666666666" y="69.88883333333332" width="69.88883333333332" height="69.88883333333332" fill="#ffffff"/><rect x="349.44" y="69.89" width="34.94" height="34.94" fill="#E6AC27"/><path d="M 349.44 104.83 A 34.94 34.94 0 0 1  384.38 69.89 L 384.38 104.83" fill="#BF4D28"/><rect x="384.39" y="69.89" width="34.94" height="34.94" fill="#F6F7BD"/><path d="M 384.39 104.83 A 34.94 34.94 0 0 0 419.33 69.89 L 384.39 69.89" fill="#F6F7BD"/><rect x="349.44" y="104.83" width="34.94" height="34.94" fill="#80BCA3"/><path d="M 349.44 104.83 A 34.94 34.94 0 0 0 384.38 139.76999999999998 L 384.38 104.83" fill="#655643"/><rect x="384.39" y="104.83" width="34.94" height="34.94" fill="#655643"/><path d="M 384.39 139.76999999999998 A 34.94 34.94 0 0 0 419.33 104.83 L 384.39 104.83" fill="#BF4D28"/><rect x="419.33" y="69.89" width="69.89" height="69.89" fill="#80BCA3"/><path d="M 419.33 69.89 A 69.89 69.89 0 0 0 489.21999999999997 139.78 L 489.21999999999997 69.89" fill="#655643"/><rect x="489.2218333333333" y="69.88883333333332" width="69.88883333333332" height="69.88883333333332" fill="#ffffff"/><rect x="489.22" y="69.89" width="34.94" height="34.94" fill="#80BCA3"/><path d="M 489.22 69.89 A 34.94 34.94 0 0 1 524.1600000000001 104.83 L 489.22 104.83" fill="#655643"/><rect x="524.17" y="69.89" width="34.94" height="34.94" fill="#BF4D28"/><path d="M 524.17 104.83 A 34.94 34.94 0 0 0 559.1099999999999 69.89 L 524.17 69.89" fill="#80BCA3"/><rect x="489.22" y="104.83" width="34.94" height="34.94" fill="#80BCA3"/><path d="M 489.22 104.83 A 34.94 34.94 0 0 1 524.1600000000001 139.76999999999998 L 489.22 139.76999999999998" fill="#BF4D28"/><rect x="524.17" y="104.83" width="34.94" height="34.94" fill="#655643"/><path d="M 524.17 104.83 A 34.94 34.94 0 0 1 559.1099999999999 139.76999999999998 L 524.17 139.76999999999998" fill="#BF4D28"/><rect x="559.11" y="69.89" width="69.89" height="69.89" fill="#BF4D28"/><path d="M 559.11 69.89 A 69.89 69.89 0 0 0 629 139.78 L 629 69.89" fill="#655643"/><rect x="629" y="69.89" width="69.89" height="69.89" fill="#BF4D28"/><path d="M 629 139.78 A 69.89 69.89 0 0 1  698.89 69.89 L 698.89 139.78" fill="#E6AC27"/><rect x="0" y="139.77766666666665" width="69.88883333333332" height="69.88883333333332" fill="#ffffff"/><rect x="0" y="139.78" width="34.94" height="34.94" fill="#80BCA3"/><path d="M 0 174.72 A 34.94 34.94 0 0 1  34.94 139.78 L 34.94 174.72" fill="#F6F7BD"/><rect x="34.94" y="139.78" width="34.94" height="34.94" fill="#E6AC27"/><path d="M 34.94 174.72 A 34.94 34.94 0 0 1  69.88 139.78 L 69.88 174.72" fill="#BF4D28"/><rect x="0" y="174.72" width="34.94" height="34.94" fill="#BF4D28"/><path d="M 0 174.72 A 34.94 34.94 0 0 0 34.94 209.66 L 34.94 174.72" fill="#BF4D28"/><rect x="34.94" y="174.72" width="34.94" height="34.94" fill="#80BCA3"/><path d="M 34.94 174.72 A 34.94 34.94 0 0 0 69.88 209.66 L 69.88 174.72" fill="#655643"/><rect x="69.89" y="139.78" width="69.89" height="69.89" fill="#BF4D28"/><path d="M 69.89 139.78 A 69.89 69.89 0 0 0 139.78 209.67000000000002 L 139.78 139.78" fill="#BF4D28"/><rect x="139.78" y="139.78" width="69.89" height="69.89" fill="#E6AC27"/><path d="M 139.78 209.67000000000002 A 69.89 69.89 0 0 1  209.67000000000002 139.78 L 209.67000000000002 209.67000000000002" fill="#80BCA3"/><rect x="209.67" y="139.78" width="69.89" height="69.89" fill="#80BCA3"/><path d="M 209.67 209.67000000000002 A 69.89 69.89 0 0 0 279.56 139.78 L 209.67 139.78" fill="#E6AC27"/><rect x="279.5553333333333" y="139.77766666666665" width="69.88883333333332" height="69.88883333333332" fill="#ffffff"/><rect x="279.56" y="139.78" width="34.94" height="34.94" fill="#F6F7BD"/><path d="M 279.56 174.72 A 34.94 34.94 0 0 1  314.5 139.78 L 314.5 174.72" fill="#E6AC27"/><rect x="314.5" y="139.78" width="34.94" height="34.94" fill="#655643"/><path d="M 314.5 174.72 A 34.94 34.94 0 0 0 349.44 139.78 L 314.5 139.78" fill="#F6F7BD"/><rect x="279.56" y="174.72" width="34.94" height="34.94" fill="#BF4D28"/><path d="M 279.56 209.66 A 34.94 34.94 0 0 1  314.5 174.72 L 279.56 209.66 A 34.94 34.94 0 0 0 314.5 174.72" fill="#655643"/><rect x="314.5" y="174.72" width="34.94" height="34.94" fill="#E6AC27"/><path d="M 314.5 174.72 A 34.94 34.94 0 0 0 349.44 209.66 L 349.44 174.72" fill="#E6AC27"/><rect x="349.44" y="139.78" width="69.89" height="69.89" fill="#F6F7BD"/><path d="M 349.44 209.67000000000002 A 69.89 69.89 0 0 0 419.33 139.78 L 349.44 139.78" fill="#80BCA3"/><rect x="419.33299999999997" y="139.77766666666665" width="69.88883333333332" height="69.88883333333332" fill="#ffffff"/><rect x="419.33" y="139.78" width="34.94" height="34.94" fill="#E6AC27"/><path d="M 419.33 174.72 A 34.94 34.94 0 0 0 454.27 139.78 L 419.33 139.78" fill="#E6AC27"/><rect x="454.28" y="139.78" width="34.94" height="34.94" fill="#E6AC27"/><path d="M 454.28 139.78 A 34.94 34.94 0 0 0 489.21999999999997 174.72 L 489.21999999999997 139.78" fill="#655643"/><rect x="419.33" y="174.72" width="34.94" height="34.94" fill="#F6F7BD"/><path d="M 419.33 209.66 A 34.94 34.94 0 0 0 454.27 174.72 L 419.33 174.72" fill="#80BCA3"/><rect x="454.28" y="174.72" width="34.94" height="34.94" fill="#80BCA3"/><path d="M 454.28 174.72 A 34.94 34.94 0 0 1 489.21999999999997 209.66 L 454.28 209.66" fill="#E6AC27"/><rect x="489.22" y="139.78" width="69.89" height="69.89" fill="#655643"/><path d="M 489.22 139.78 A 69.89 69.89 0 0 0 559.11 209.67000000000002 L 559.11 139.78" fill="#E6AC27"/><rect x="559.11" y="139.78" width="69.89" height="69.89" fill="#E6AC27"/><path d="M 559.11 209.67000000000002 A 69.89 69.89 0 0 1  629 139.78 L 629 209.67000000000002" fill="#80BCA3"/><rect x="629" y="139.78" width="69.89" height="69.89" fill="#655643"/><path d="M 629 139.78 A 69.89 69.89 0 0 1 698.89 209.67000000000002 L 629 209.67000000000002" fill="#655643"/><rect x="0" y="209.67" width="69.89" height="69.89" fill="#BF4D28"/><path d="M 0 209.67 A 69.89 69.89 0 0 1  69.89 279.56 L 0 209.67 A 69.89 69.89 0 0 0 69.89 279.56" fill="#655643"/><rect x="69.88883333333332" y="209.66649999999998" width="69.88883333333332" height="69.88883333333332" fill="#ffffff"/><rect x="69.89" y="209.67" width="34.94" height="34.94" fill="#F6F7BD"/><path d="M 69.89 244.60999999999999 A 34.94 34.94 0 0 1  104.83 209.67 L 104.83 244.60999999999999" fill="#F6F7BD"/><rect x="104.83" y="209.67" width="34.94" height="34.94" fill="#655643"/><path d="M 104.83 244.60999999999999 A 34.94 34.94 0 0 1  139.76999999999998 209.67 L 139.76999999999998 244.60999999999999" fill="#E6AC27"/><rect x="69.89" y="244.61" width="34.94" height="34.94" fill="#655643"/><path d="M 69.89 279.55 A 34.94 34.94 0 0 1  104.83 244.61 L 69.89 279.55 A 34.94 34.94 0 0 0 104.83 244.61" fill="#655643"/><rect x="104.83" y="244.61" width="34.94" height="34.94" fill="#BF4D28"/><path d="M 104.83 279.55 A 34.94 34.94 0 0 1  139.76999999999998 244.61 L 139.76999999999998 279.55" fill="#F6F7BD"/><rect x="139.78" y="209.67" width="69.89" height="69.89" fill="#BF4D28"/><path d="M 139.78 279.56 A 69.89 69.89 0 0 1  209.67000000000002 209.67 L 209.67000000000002 279.56" fill="#655643"/><rect x="209.67" y="209.67" width="69.89" height="69.89" fill="#80BCA3"/><path d="M 209.67 279.56 A 69.89 69.89 0 0 1  279.56 209.67 L 279.56 279.56" fill="#F6F7BD"/><rect x="279.5553333333333" y="209.66649999999998" width="69.88883333333332" height="69.88883333333332" fill="#ffffff"/><rect x="279.56" y="209.67" width="34.94" height="34.94" fill="#80BCA3"/><path d="M 279.56 244.60999999999999 A 34.94 34.94 0 0 1  314.5 209.67 L 279.56 244.60999999999999 A 34.94 34.94 0 0 0 314.5 209.67" fill="#BF4D28"/><rect x="314.5" y="209.67" width="34.94" height="34.94" fill="#E6AC27"/><path d="M 314.5 209.67 A 34.94 34.94 0 0 1  349.44 244.60999999999999 L 314.5 209.67 A 34.94 34.94 0 0 0 349.44 244.60999999999999" fill="#E6AC27"/><rect x="279.56" y="244.61" width="34.94" height="34.94" fill="#E6AC27"/><path d="M 279.56 244.61 A 34.94 34.94 0 0 1 314.5 279.55 L 279.56 279.55" fill="#E6AC27"/><rect x="314.5" y="244.61" width="34.94" height="34.94" fill="#80BCA3"/><path d="M 314.5 244.61 A 34.94 34.94 0 0 1  349.44 279.55 L 314.5 244.61 A 34.94 34.94 0 0 0 349.44 279.55" fill="#E6AC27"/><rect x="349.44" y="209.67" width="69.89" height="69.89" fill="#BF4D28"/><path d="M 349.44 279.56 A 69.89 69.89 0 0 1  419.33 209.67 L 349.44 279.56 A 69.89 69.89 0 0 0 419.33 209.67" fill="#F6F7BD"/><rect x="419.33299999999997" y="209.66649999999998" width="69.88883333333332" height="69.88883333333332" fill="#ffffff"/><rect x="419.33" y="209.67" width="34.94" height="34.94" fill="#655643"/><path d="M 419.33 209.67 A 34.94 34.94 0 0 1 454.27 244.60999999999999 L 419.33 244.60999999999999" fill="#BF4D28"/><rect x="454.28" y="209.67" width="34.94" height="34.94" fill="#BF4D28"/><path d="M 454.28 244.60999999999999 A 34.94 34.94 0 0 1  489.21999999999997 209.67 L 454.28 244.60999999999999 A 34.94 34.94 0 0 0 489.21999999999997 209.67" fill="#E6AC27"/><rect x="419.33" y="244.61" width="34.94" height="34.94" fill="#BF4D28"/><path d="M 419.33 279.55 A 34.94 34.94 0 0 0 454.27 244.61 L 419.33 244.61" fill="#F6F7BD"/><rect x="454.28" y="244.61" width="34.94" height="34.94" fill="#F6F7BD"/><path d="M 454.28 279.55 A 34.94 34.94 0 0 1  489.21999999999997 244.61 L 454.28 279.55 A 34.94 34.94 0 0 0 489.21999999999997 244.61" fill="#E6AC27"/><rect x="489.2218333333333" y="209.66649999999998" width="69.88883333333332" height="69.88883333333332" fill="#ffffff"/><rect x="489.22" y="209.67" width="34.94" height="34.94" fill="#E6AC27"/><path d="M 489.22 209.67 A 34.94 34.94 0 0 1  524.1600000000001 244.60999999999999 L 489.22 209.67 A 34.94 34.94 0 0 0 524.1600000000001 244.60999999999999" fill="#655643"/><rect x="524.17" y="209.67" width="34.94" height="34.94" fill="#80BCA3"/><path d="M 524.17 209.67 A 34.94 34.94 0 0 1 559.1099999999999 244.60999999999999 L 524.17 244.60999999999999" fill="#80BCA3"/><rect x="489.22" y="244.61" width="34.94" height="34.94" fill="#BF4D28"/><path d="M 489.22 279.55 A 34.94 34.94 0 0 1  524.1600000000001 244.61 L 489.22 279.55 A 34.94 34.94 0 0 0 524.1600000000001 244.61" fill="#80BCA3"/><rect x="524.17" y="244.61" width="34.94" height="34.94" fill="#BF4D28"/><path d="M 524.17 244.61 A 34.94 34.94 0 0 1  559.1099999999999 279.55 L 524.17 244.61 A 34.94 34.94 0 0 0 559.1099999999999 279.55" fill="#BF4D28"/><rect x="559.1106666666666" y="209.66649999999998" width="69.88883333333332" height="69.88883333333332" fill="#ffffff"/><rect x="559.11" y="209.67" width="34.94" height="34.94" fill="#F6F7BD"/><path d="M 559.11 244.60999999999999 A 34.94 34.94 0 0 1  594.05 209.67 L 594.05 244.60999999999999" fill="#E6AC27"/><rect x="594.06" y="209.67" width="34.94" height="34.94" fill="#655643"/><path d="M 594.06 244.60999999999999 A 34.94 34.94 0 0 1  629 209.67 L 629 244.60999999999999" fill="#BF4D28"/><rect x="559.11" y="244.61" width="34.94" height="34.94" fill="#BF4D28"/><path d="M 559.11 244.61 A 34.94 34.94 0 0 0 594.05 279.55 L 594.05 244.61" fill="#BF4D28"/><rect x="594.06" y="244.61" width="34.94" height="34.94" fill="#E6AC27"/><path d="M 594.06 279.55 A 34.94 34.94 0 0 0 629 244.61 L 594.06 244.61" fill="#E6AC27"/><rect x="629" y="209.67" width="69.89" height="69.89" fill="#80BCA3"/><path d="M 629 279.56 A 69.89 69.89 0 0 1  698.89 209.67 L 698.89 279.56" fill="#655643"/><rect x="0" y="279.56" width="69.89" height="69.89" fill="#80BCA3"/><path d="M 0 349.45 A 69.89 69.89 0 0 1  69.89 279.56 L 69.89 349.45" fill="#BF4D28"/><rect x="69.89" y="279.56" width="69.89" height="69.89" fill="#E6AC27"/><path d="M 69.89 279.56 A 69.89 69.89 0 0 1  139.78 349.45 L 69.89 279.56 A 69.89 69.89 0 0 0 139.78 349.45" fill="#655643"/><rect x="139.78" y="279.56" width="69.89" height="69.89" fill="#E6AC27"/><path d="M 139.78 279.56 A 69.89 69.89 0 0 1  209.67000000000002 349.45 L 139.78 279.56 A 69.89 69.89 0 0 0 209.67000000000002 349.45" fill="#F6F7BD"/><rect x="209.67" y="279.56" width="69.89" height="69.89" fill="#80BCA3"/><path d="M 209.67 349.45 A 69.89 69.89 0 0 1  279.56 279.56 L 209.67 349.45 A 69.89 69.89 0 0 0 279.56 279.56" fill="#BF4D28"/><rect x="279.5553333333333" y="279.5553333333333" width="69.88883333333332" height="69.88883333333332" fill="#ffffff"/><rect x="279.56" y="279.56" width="34.94" height="34.94" fill="#BF4D28"/><path d="M 279.56 279.56 A 34.94 34.94 0 0 0 314.5 314.5 L 314.5 279.56" fill="#E6AC27"/><rect x="314.5" y="279.56" width="34.94" height="34.94" fill="#80BCA3"/><path d="M 314.5 314.5 A 34.94 34.94 0 0 1  349.44 279.56 L 349.44 314.5" fill="#F6F7BD"/><rect x="279.56" y="314.5" width="34.94" height="34.94" fill="#F6F7BD"/><path d="M 279.56 314.5 A 34.94 34.94 0 0 0 314.5 349.44 L 314.5 314.5" fill="#F6F7BD"/><rect x="314.5" y="314.5" width="34.94" height="34.94" fill="#F6F7BD"/><path d="M 314.5 349.44 A 34.94 34.94 0 0 0 349.44 314.5 L 314.5 314.5" fill="#80BCA3"/><rect x="349.4441666666666" y="279.5553333333333" width="69.88883333333332" height="69.88883333333332" fill="#ffffff"/><rect x="349.44" y="279.56" width="34.94" height="34.94" fill="#80BCA3"/><path d="M 349.44 279.56 A 34.94 34.94 0 0 1 384.38 314.5 L 349.44 314.5" fill="#E6AC27"/><rect x="384.39" y="279.56" width="34.94" height="34.94" fill="#655643"/><path d="M 384.39 314.5 A 34.94 34.94 0 0 0 419.33 279.56 L 384.39 279.56" fill="#80BCA3"/><rect x="349.44" y="314.5" width="34.94" height="34.94" fill="#BF4D28"/><path d="M 349.44 349.44 A 34.94 34.94 0 0 1  384.38 314.5 L 384.38 349.44" fill="#80BCA3"/><rect x="384.39" y="314.5" width="34.94" height="34.94" fill="#80BCA3"/><path d="M 384.39 349.44 A 34.94 34.94 0 0 0 419.33 314.5 L 384.39 314.5" fill="#E6AC27"/><rect x="419.33" y="279.56" width="69.89" height="69.89" fill="#80BCA3"/><path d="M 419.33 279.56 A 69.89 69.89 0 0 1  489.21999999999997 349.45 L 419.33 279.56 A 69.89 69.89 0 0 0 489.21999999999997 349.45" fill="#E6AC27"/><rect x="489.2218333333333" y="279.5553333333333" width="69.88883333333332" height="69.88883333333332" fill="#ffffff"/><rect x="489.22" y="279.56" width="34.94" height="34.94" fill="#E6AC27"/><path d="M 489.22 279.56 A 34.94 34.94 0 0 0 524.1600000000001 314.5 L 524.1600000000001 279.56" fill="#F6F7BD"/><rect x="524.17" y="279.56" width="34.94" height="34.94" fill="#80BCA3"/><path d="M 524.17 279.56 A 34.94 34.94 0 0 0 559.1099999999999 314.5 L 559.1099999999999 279.56" fill="#F6F7BD"/><rect x="489.22" y="314.5" width="34.94" height="34.94" fill="#80BCA3"/><path d="M 489.22 314.5 A 34.94 34.94 0 0 1 524.1600000000001 349.44 L 489.22 349.44" fill="#80BCA3"/><rect x="524.17" y="314.5" width="34.94" height="34.94" fill="#655643"/><path d="M 524.17 314.5 A 34.94 34.94 0 0 1  559.1099999999999 349.44 L 524.17 314.5 A 34.94 34.94 0 0 0 559.1099999999999 349.44" fill="#F6F7BD"/><rect x="559.1106666666666" y="279.5553333333333" width="69.88883333333332" height="69.88883333333332" fill="#ffffff"/><rect x="559.11" y="279.56" width="34.94" height="34.94" fill="#F6F7BD"/><path d="M 559.11 279.56 A 34.94 34.94 0 0 0 594.05 314.5 L 594.05 279.56" fill="#BF4D28"/><rect x="594.06" y="279.56" width="34.94" height="34.94" fill="#F6F7BD"/><path d="M 594.06 314.5 A 34.94 34.94 0 0 1  629 279.56 L 629 314.5" fill="#E6AC27"/><rect x="559.11" y="314.5" width="34.94" height="34.94" fill="#BF4D28"/><path d="M 559.11 349.44 A 34.94 34.94 0 0 0 594.05 314.5 L 559.11 314.5" fill="#E6AC27"/><rect x="594.06" y="314.5" width="34.94" height="34.94" fill="#80BCA3"/><path d="M 594.06 314.5 A 34.94 34.94 0 0 1 629 349.44 L 594.06 349.44" fill="#BF4D28"/><rect x="629" y="279.56" width="69.89" height="69.89" fill="#80BCA3"/><path d="M 629 349.45 A 69.89 69.89 0 0 1  698.89 279.56 L 629 349.45 A 69.89 69.89 0 0 0 698.89 279.56" fill="#BF4D28"/><rect x="0" y="349.44" width="69.89" height="69.89" fill="#655643"/><path d="M 0 349.44 A 69.89 69.89 0 0 1  69.89 419.33 L 0 349.44 A 69.89 69.89 0 0 0 69.89 419.33" fill="#F6F7BD"/><rect x="69.88883333333332" y="349.4441666666666" width="69.88883333333332" height="69.88883333333332" fill="#ffffff"/><rect x="69.89" y="349.44" width="34.94" height="34.94" fill="#80BCA3"/><path d="M 69.89 349.44 A 34.94 34.94 0 0 1  104.83 384.38 L 69.89 349.44 A 34.94 34.94 0 0 0 104.83 384.38" fill="#655643"/><rect x="104.83" y="349.44" width="34.94" height="34.94" fill="#BF4D28"/><path d="M 104.83 384.38 A 34.94 34.94 0 0 1  139.76999999999998 349.44 L 139.76999999999998 384.38" fill="#E6AC27"/><rect x="69.89" y="384.39" width="34.94" height="34.94" fill="#F6F7BD"/><path d="M 69.89 384.39 A 34.94 34.94 0 0 1  104.83 419.33 L 69.89 384.39 A 34.94 34.94 0 0 0 104.83 419.33" fill="#655643"/><rect x="104.83" y="384.39" width="34.94" height="34.94" fill="#E6AC27"/><path d="M 104.83 384.39 A 34.94 34.94 0 0 1  139.76999999999998 419.33 L 104.83 384.39 A 34.94 34.94 0 0 0 139.76999999999998 419.33" fill="#BF4D28"/><rect x="139.77766666666665" y="349.4441666666666" width="69.88883333333332" height="69.88883333333332" fill="#ffffff"/><rect x="139.78" y="349.44" width="34.94" height="34.94" fill="#F6F7BD"/><path d="M 139.78 349.44 A 34.94 34.94 0 0 1  174.72 384.38 L 139.78 349.44 A 34.94 34.94 0 0 0 174.72 384.38" fill="#655643"/><rect x="174.72" y="349.44" width="34.94" height="34.94" fill="#E6AC27"/><path d="M 174.72 384.38 A 34.94 34.94 0 0 1  209.66 349.44 L 209.66 384.38" fill="#BF4D28"/><rect x="139.78" y="384.39" width="34.94" height="34.94" fill="#BF4D28"/><path d="M 139.78 384.39 A 34.94 34.94 0 0 1 174.72 419.33 L 139.78 419.33" fill="#80BCA3"/><rect x="174.72" y="384.39" width="34.94" height="34.94" fill="#655643"/><path d="M 174.72 419.33 A 34.94 34.94 0 0 1  209.66 384.39 L 174.72 419.33 A 34.94 34.94 0 0 0 209.66 384.39" fill="#655643"/><rect x="209.67" y="349.44" width="69.89" height="69.89" fill="#BF4D28"/><path d="M 209.67 419.33 A 69.89 69.89 0 0 1  279.56 349.44 L 279.56 419.33" fill="#F6F7BD"/><rect x="279.5553333333333" y="349.4441666666666" width="69.88883333333332" height="69.88883333333332" fill="#ffffff"/><rect x="279.56" y="349.44" width="34.94" height="34.94" fill="#80BCA3"/><path d="M 279.56 384.38 A 34.94 34.94 0 0 0 314.5 349.44 L 279.56 349.44" fill="#E6AC27"/><rect x="314.5" y="349.44" width="34.94" height="34.94" fill="#80BCA3"/><path d="M 314.5 384.38 A 34.94 34.94 0 0 0 349.44 349.44 L 314.5 349.44" fill="#BF4D28"/><rect x="279.56" y="384.39" width="34.94" height="34.94" fill="#E6AC27"/><path d="M 279.56 384.39 A 34.94 34.94 0 0 1 314.5 419.33 L 279.56 419.33" fill="#655643"/><rect x="314.5" y="384.39" width="34.94" height="34.94" fill="#E6AC27"/><path d="M 314.5 419.33 A 34.94 34.94 0 0 1  349.44 384.39 L 314.5 419.33 A 34.94 34.94 0 0 0 349.44 384.39" fill="#655643"/><rect x="349.4441666666666" y="349.4441666666666" width="69.88883333333332" height="69.88883333333332" fill="#ffffff"/><rect x="349.44" y="349.44" width="34.94" height="34.94" fill="#80BCA3"/><path d="M 349.44 384.38 A 34.94 34.94 0 0 1  384.38 349.44 L 384.38 384.38" fill="#F6F7BD"/><rect x="384.39" y="349.44" width="34.94" height="34.94" fill="#E6AC27"/><path d="M 384.39 384.38 A 34.94 34.94 0 0 1  419.33 349.44 L 384.39 384.38 A 34.94 34.94 0 0 0 419.33 349.44" fill="#655643"/><rect x="349.44" y="384.39" width="34.94" height="34.94" fill="#655643"/><path d="M 349.44 419.33 A 34.94 34.94 0 0 0 384.38 384.39 L 349.44 384.39" fill="#E6AC27"/><rect x="384.39" y="384.39" width="34.94" height="34.94" fill="#BF4D28"/><path d="M 384.39 419.33 A 34.94 34.94 0 0 1  419.33 384.39 L 384.39 419.33 A 34.94 34.94 0 0 0 419.33 384.39" fill="#F6F7BD"/><rect x="419.33" y="349.44" width="69.89" height="69.89" fill="#E6AC27"/><path d="M 419.33 419.33 A 69.89 69.89 0 0 1  489.21999999999997 349.44 L 419.33 419.33 A 69.89 69.89 0 0 0 489.21999999999997 349.44" fill="#80BCA3"/><rect x="489.22" y="349.44" width="69.89" height="69.89" fill="#F6F7BD"/><path d="M 489.22 419.33 A 69.89 69.89 0 0 1  559.11 349.44 L 489.22 419.33 A 69.89 69.89 0 0 0 559.11 349.44" fill="#E6AC27"/><rect x="559.1106666666666" y="349.4441666666666" width="69.88883333333332" height="69.88883333333332" fill="#ffffff"/><rect x="559.11" y="349.44" width="34.94" height="34.94" fill="#BF4D28"/><path d="M 559.11 349.44 A 34.94 34.94 0 0 1  594.05 384.38 L 559.11 349.44 A 34.94 34.94 0 0 0 594.05 384.38" fill="#655643"/><rect x="594.06" y="349.44" width="34.94" height="34.94" fill="#E6AC27"/><path d="M 594.06 349.44 A 34.94 34.94 0 0 1 629 384.38 L 594.06 384.38" fill="#655643"/><rect x="559.11" y="384.39" width="34.94" height="34.94" fill="#BF4D28"/><path d="M 559.11 384.39 A 34.94 34.94 0 0 0 594.05 419.33 L 594.05 384.39" fill="#F6F7BD"/><rect x="594.06" y="384.39" width="34.94" height="34.94" fill="#BF4D28"/><path d="M 594.06 419.33 A 34.94 34.94 0 0 1  629 384.39 L 594.06 419.33 A 34.94 34.94 0 0 0 629 384.39" fill="#E6AC27"/><rect x="628.9994999999999" y="349.4441666666666" width="69.88883333333332" height="69.88883333333332" fill="#ffffff"/><rect x="629" y="349.44" width="34.94" height="34.94" fill="#655643"/><path d="M 629 349.44 A 34.94 34.94 0 0 1  663.94 384.38 L 629 349.44 A 34.94 34.94 0 0 0 663.94 384.38" fill="#655643"/><rect x="663.94" y="349.44" width="34.94" height="34.94" fill="#E6AC27"/><path d="M 663.94 349.44 A 34.94 34.94 0 0 0 698.8800000000001 384.38 L 698.8800000000001 349.44" fill="#BF4D28"/><rect x="629" y="384.39" width="34.94" height="34.94" fill="#655643"/><path d="M 629 384.39 A 34.94 34.94 0 0 1  663.94 419.33 L 629 384.39 A 34.94 34.94 0 0 0 663.94 419.33" fill="#F6F7BD"/><rect x="663.94" y="384.39" width="34.94" height="34.94" fill="#F6F7BD"/><path d="M 663.94 384.39 A 34.94 34.94 0 0 0 698.8800000000001 419.33 L 698.8800000000001 384.39" fill="#80BCA3"/></g></svg>